<?xml version="1.0" encoding="UTF-8" standalone="no"?>
<!-- Created with Inkscape (http://www.inkscape.org/) -->

<svg
   version="1.1"
   id="svg1"
   width="201.60254"
   height="165.29651"
   viewBox="0 0 201.60254 165.29651"
   xmlns="http://www.w3.org/2000/svg"
   xmlns:svg="http://www.w3.org/2000/svg">
  <defs
     id="defs1">
    <clipPath
       clipPathUnits="userSpaceOnUse"
       id="clipPath3">
      <path
         d="M 0,0 H 151.2019 V 151.19887 H 0 Z"
         id="path3" />
    </clipPath>
    <clipPath
       clipPathUnits="userSpaceOnUse"
       id="clipPath5">
      <path
         d="M 0,0 H 151.2019 V 151.19887 H 0 Z"
         id="path5" />
    </clipPath>
    <clipPath
       clipPathUnits="userSpaceOnUse"
       id="clipPath7">
      <path
         d="M 0,0 H 151.2019 V 151.19887 H 0 Z"
         id="path7" />
    </clipPath>
  </defs>
  <g
     id="g1"
     transform="translate(-0.26533332,-33.678643)">
    <path
       id="path1"
       d="M 0,0 H 151.2019"
       style="fill:none;stroke:#000000;stroke-width:0.3985;stroke-linecap:butt;stroke-linejoin:miter;stroke-miterlimit:10;stroke-dasharray:none;stroke-opacity:1"
       transform="matrix(1.3333333,0,0,-1.3333333,0.26533333,195.28267)" />
    <path
       id="path2"
       d="m 0,0.00957 c 0,0 1.10341,0.0021 1.52719,0.00311 0.4238,0.00102 1.10343,0.00285 1.52721,0.00427 0.4238,0.00144 1.10344,0.004 1.52722,0.00612 0.4238,0.00211 1.10344,0.00589 1.52722,0.0092 0.4238,0.0033 1.10343,0.00922 1.52721,0.01467 0.42379,0.00544 1.10344,0.01527 1.52722,0.02458 0.4238,0.00931 1.10343,0.02632 1.52721,0.04254 0.42378,0.01622 1.10343,0.04616 1.52722,0.07443 0.42378,0.02828 1.10342,0.08087 1.5272,0.12938 0.42379,0.04851 1.10344,0.13922 1.52723,0.22035 0.42377,0.08113 1.10342,0.23318 1.5272,0.3644 0.42378,0.13124 1.10344,0.37717 1.52722,0.58156 0.42379,0.20439 1.10345,0.58625 1.52723,0.89166 0.42378,0.30539 1.10342,0.87309 1.5272,1.3094 0.42378,0.43631 1.10344,1.23975 1.52722,1.83527 0.42379,0.59553 1.10343,1.68239 1.52721,2.45685 0.42378,0.77444 1.10342,2.17014 1.52721,3.1249 0.42378,0.95478 1.10344,2.64277 1.52722,3.7564 0.42378,1.11364 1.10344,3.04714 1.52722,4.26996 0.42378,1.22279 1.10342,3.2902 1.52721,4.54318 0.42378,1.25297 1.10343,3.30406 1.52722,4.48746 0.42378,1.18339 1.10342,3.03727 1.52721,4.0417 0.42378,1.00442 1.10343,2.47249 1.52722,3.19752 0.42378,0.72504 1.10343,1.65641 1.52722,2.02809 0.42378,0.37169 1.10341,0.66732 1.5272,0.65085 0.42379,-0.01646 1.10341,-0.3778 1.52721,-0.7696 0.42378,-0.3918 1.10342,-1.34488 1.52722,-2.05431 0.42378,-0.70941 1.10343,-2.1232 1.52723,-3.05875 0.42378,-0.93556 1.1034,-2.63023 1.5272,-3.6842 0.42378,-1.05397 1.10342,-2.84761 1.52722,-3.91213 0.42378,-1.06451 1.10341,-2.77833 1.52719,-3.76022 0.4238,-0.9819 1.10343,-2.48253 1.52721,-3.3167 0.4238,-0.83415 1.10345,-2.04516 1.52724,-2.69543 0.42379,-0.65025 1.10342,-1.53537 1.5272,-1.99127 0.4238,-0.45591 1.10343,-1.02219 1.52721,-1.29461 0.4238,-0.27241 1.10344,-0.5549 1.52722,-0.66883 0.4238,-0.11394 1.10342,-0.16625 1.52721,-0.15239 0.42378,0.01387 1.10344,0.1398 1.52722,0.25236 0.42378,0.11258 1.10344,0.37372 1.52722,0.55901 0.42378,0.18527 1.10342,0.54051 1.52721,0.77638 0.42378,0.23589 1.10342,0.65383 1.5272,0.92365 0.42379,0.26982 1.10345,0.72877 1.52722,1.02113 0.42379,0.29237 1.10344,0.77939 1.52723,1.08609 0.42378,0.3067 1.10342,0.81052 1.5272,1.12442 0.42379,0.3139 1.10344,0.82221 1.52722,1.13808 0.42378,0.31587 1.10343,0.82425 1.52721,1.13855 0.42378,0.3143 1.10343,0.81733 1.52721,1.12672 0.42378,0.30939 1.10345,0.8029 1.52723,1.10317 0.42379,0.30027 1.10343,0.77359 1.52721,1.06103 0.42378,0.28746 1.10342,0.73856 1.52721,1.01079 0.42378,0.27222 1.10344,0.69818 1.52722,0.95129 0.42378,0.25312 1.10342,0.64215 1.52721,0.873 0.42378,0.23084 1.10343,0.58443 1.52722,0.79076 0.42378,0.20635 1.10344,0.51739 1.52722,0.69643 0.42378,0.17901 1.10341,0.44514 1.52721,0.5939 0.42378,0.14877 1.1034,0.36126 1.5272,0.47839 0.42378,0.11713 1.10343,0.28191 1.52723,0.36589 0.42378,0.084 1.10342,0.19027 1.52721,0.23952 0.42379,0.04926 1.10341,0.10152 1.52721,0.11551 0.42378,0.01401 1.10343,0.0066 1.52722,-0.01451 0.42379,-0.02115 1.10341,-0.08211 1.52721,-0.13789 0.42378,-0.05581 1.10342,-0.17411 1.52721,-0.2643 0.42379,-0.09018 1.10344,-0.26244 1.52722,-0.38587 0.4238,-0.12342 1.10342,-0.34874 1.5272,-0.5038 0.4238,-0.15506 1.10343,-0.42944 1.52721,-0.61384 0.4238,-0.1844 1.10344,-0.50382 1.52722,-0.71518 0.4238,-0.21136 1.10343,-0.57274 1.52721,-0.80832 0.4238,-0.23558 1.10344,-0.63258 1.52722,-0.88965 0.42378,-0.25706 1.10344,-0.68774 1.52722,-0.96313 0.42378,-0.27541 1.10343,-0.73156 1.52721,-1.02181 0.42378,-0.29025 1.10342,-0.76781 1.5272,-1.07019 0.42379,-0.30238 1.10344,-0.79825 1.52723,-1.10918 0.42378,-0.31094 1.10344,-0.81584 1.52722,-1.13188 0.42378,-0.31605 1.10342,-0.82727 1.5272,-1.14608 0.42378,-0.31884 1.10344,-0.83388 1.52723,-1.15183 0.42378,-0.31796 1.10342,-0.82567 1.5272,-1.13975 0.42378,-0.31409 1.10344,-0.81531 1.52722,-1.12401 0.42379,-0.3087 1.10344,-0.8003 1.52723,-1.10103 0.42378,-0.30075 1.10342,-0.77631 1.5272,-1.06656 0.42378,-0.29025 1.10343,-0.74684 1.52721,-1.02544 0.42378,-0.27859 1.10344,-0.71685 1.52722,-0.98248 0.42378,-0.26562 1.10342,-0.68043 1.52721,-0.93199 0.42378,-0.25156 1.10344,-0.64481 1.52722,-0.88118 0.42378,-0.23637 1.10344,-0.60176 1.52722,-0.82254 0.42378,-0.22078 1.10342,-0.56328 1.52721,-0.76869 0.42378,-0.2054 1.10342,-0.52204 1.52722,-0.71184 0.42378,-0.18982 1.10341,-0.48233 1.5272,-0.65621 0.42379,-0.17385 1.10343,-0.43832 1.52723,-0.59692 0.42378,-0.1586 1.10341,-0.40211 1.5272,-0.54626 0.42379,-0.14414 1.10343,-0.36299 1.52722,-0.49266 0.42379,-0.12967 1.10341,-0.32553 1.52721,-0.44196 0.42378,-0.11641 1.10343,-0.29315 1.52721,-0.39719 0.42379,-0.10405 1.10342,-0.26051 1.5272,-0.35272 0.4238,-0.09221 1.10343,-0.2306 1.52721,-0.31199 0.4238,-0.08138 1.10344,-0.20311 1.52722,-0.27454 0.4238,-0.07144 1.10343,-0.17796 1.52721,-0.24031 0.4238,-0.06236 1.10344,-0.15503 1.52722,-0.2092 0.4238,-0.05417 1.10342,-0.13444 1.52721,-0.18124 0.42378,-0.04678 1.5272,-0.1561 1.5272,-0.1561"
       style="fill:none;stroke:#000000;stroke-width:1.59404;stroke-linecap:butt;stroke-linejoin:miter;stroke-miterlimit:10;stroke-dasharray:none;stroke-opacity:1"
       transform="matrix(1.3333333,0,0,-1.3333333,0.26533333,195.28267)"
       clip-path="url(#clipPath3)" />
    <path
       id="path4"
       d="m 0,4.3e-4 c 0,0 1.10341,3.9e-4 1.52719,7.6e-4 0.4238,3.7e-4 1.10343,0.00102 1.52721,0.00192 0.4238,9e-4 1.10344,0.00251 1.52722,0.00463 0.4238,0.0021 1.10344,0.00592 1.52722,0.01068 0.4238,0.00476 1.10343,0.01344 1.52721,0.02369 0.42379,0.01027 1.10344,0.02915 1.52722,0.05029 0.4238,0.02116 1.10343,0.06045 1.52721,0.10223 0.42378,0.04177 1.10343,0.11991 1.52722,0.19888 0.42378,0.07896 1.10342,0.22735 1.5272,0.37021 0.42379,0.14285 1.10344,0.4122 1.52723,0.65944 0.42377,0.24724 1.10342,0.71348 1.5272,1.12262 0.42378,0.40913 1.10344,1.1793 1.52722,1.82615 0.42379,0.64684 1.10345,1.85965 1.52723,2.83588 0.42378,0.97623 1.10342,2.79599 1.5272,4.2001 0.42378,1.4041 1.10344,3.99499 1.52722,5.91977 0.42379,1.92478 1.10343,5.4431 1.52721,7.95276 0.42378,2.50966 1.10342,7.03789 1.52721,10.13516 0.42378,3.09726 1.10344,8.57634 1.52722,12.18784 0.42378,3.61148 1.10344,9.88346 1.52722,13.84136 0.42378,3.9579 1.10342,10.64602 1.52721,14.68443 0.42378,4.03839 1.10343,10.63766 1.52722,14.42166 0.42378,3.78398 1.10342,9.68829 1.52721,12.85068 0.42378,3.16239 1.10343,7.73819 1.52722,9.94163 0.42378,2.20346 1.10343,4.94476 1.52722,5.9394 0.42378,0.9946 1.10341,1.5625 1.5272,1.22924 0.42379,-0.33327 1.10341,-2.01057 1.52721,-3.63119 0.42378,-1.62062 1.10342,-5.33004 1.52722,-8.04923 0.42378,-2.71919 1.10343,-8.03296 1.52723,-11.54887 0.42378,-3.51592 1.1034,-9.83692 1.5272,-13.79145 0.42378,-3.95454 1.10342,-10.6734 1.52722,-14.71014 0.42378,-4.03673 1.10341,-10.57164 1.52719,-14.38385 0.4238,-3.81221 1.10343,-9.72186 1.52721,-13.09203 0.4238,-3.37014 1.10345,-8.38819 1.52724,-11.19776 0.42379,-2.80958 1.10342,-6.83648 1.5272,-9.05167 0.4238,-2.21521 1.10343,-5.25867 1.52721,-6.91403 0.4238,-1.65537 1.10344,-3.83844 1.52722,-5.01671 0.4238,-1.17829 1.10342,-2.67534 1.52721,-3.4755 0.42378,-0.80015 1.10344,-1.77357 1.52722,-2.29158 0.42378,-0.518 1.10344,-1.12163 1.52722,-1.44189 0.42378,-0.32025 1.10342,-0.67716 1.52721,-0.86639 0.42378,-0.18923 1.10342,-0.3906 1.5272,-0.49756 C 63.03954,0.44504 63.7192,0.33647 64.14297,0.27863 64.56676,0.22078 65.24641,0.165 65.6702,0.13506 66.09398,0.10513 66.77362,0.07765 67.1974,0.06282 67.62119,0.04799 68.30084,0.0351 68.72462,0.02806 69.1484,0.02101 69.82805,0.01523 70.25183,0.01202 70.67561,0.0088 71.35526,0.00632 71.77904,0.00493 72.20282,0.00356 72.88249,0.00252 73.30627,0.00194 73.73006,0.00136 74.4097,9.5e-4 74.83348,7.2e-4 75.25726,4.9e-4 75.9369,3.2e-4 76.36069,2.4e-4 76.78447,1.7e-4 77.46413,1e-4 77.88791,8e-5 78.31169,5e-5 78.99133,2e-5 79.41512,2e-5 79.8389,2e-5 80.51855,0 80.94234,0 c 0.42378,0 1.10344,0 1.52722,0 0.42378,0 1.10341,0 1.52721,0 0.42378,0 1.1034,0 1.5272,0 0.42378,0 1.10343,0 1.52723,0 0.42378,0 1.10342,0 1.52721,0 0.42379,0 1.10341,0 1.52721,0 0.42378,0 1.10343,0 1.52722,0 0.42379,0 1.10341,0 1.52721,0 0.42378,0 1.10342,0 1.52721,0 0.42379,0 1.10344,0 1.52722,0 0.4238,0 1.10342,0 1.5272,0 0.4238,0 1.10343,0 1.52721,0 0.4238,0 1.10344,0 1.52722,0 0.4238,0 1.10343,0 1.52721,0 0.4238,0 1.10344,0 1.52722,0 0.42378,0 1.10344,0 1.52722,0 0.42378,0 1.10343,0 1.52721,0 0.42378,0 1.10342,0 1.5272,0 0.42379,0 1.10344,0 1.52723,0 0.42378,0 1.10344,0 1.52722,0 0.42378,0 1.10342,0 1.5272,0 0.42378,0 1.10344,0 1.52723,0 0.42378,0 1.10342,0 1.5272,0 0.42378,0 1.10344,0 1.52722,0 0.42379,0 1.10344,0 1.52723,0 0.42378,0 1.10342,0 1.5272,0 0.42378,0 1.10343,0 1.52721,0 0.42378,0 1.10344,0 1.52722,0 0.42378,0 1.10342,0 1.52721,0 0.42378,0 1.10344,0 1.52722,0 0.42378,0 1.10344,0 1.52722,0 0.42378,0 1.10342,0 1.52721,0 0.42378,0 1.10342,0 1.52722,0 0.42378,0 1.10341,0 1.5272,0 0.42379,0 1.10343,0 1.52723,0 0.42378,0 1.10341,0 1.5272,0 0.42379,0 1.10343,0 1.52722,0 0.42379,0 1.10341,0 1.52721,0 0.42378,0 1.10343,0 1.52721,0 0.42379,0 1.10342,0 1.5272,0 0.4238,0 1.10343,0 1.52721,0 0.4238,0 1.10344,0 1.52722,0 0.4238,0 1.10343,0 1.52721,0 0.4238,0 1.10344,0 1.52722,0 0.4238,0 1.10342,0 1.52721,0 0.42378,0 1.5272,0 1.5272,0"
       style="fill:none;stroke:#266bbd;stroke-width:1.19553;stroke-linecap:butt;stroke-linejoin:miter;stroke-miterlimit:10;stroke-dasharray:none;stroke-opacity:1"
       transform="matrix(1.3333333,0,0,-1.3333333,0.26533333,195.28267)"
       clip-path="url(#clipPath5)" />
    <path
       id="path6"
       d="m 0,0.01347 c 0,0 1.10341,0.00284 1.52719,0.00414 0.4238,0.00131 1.10343,0.00363 1.52721,0.00529 0.4238,0.00165 1.10344,0.00463 1.52722,0.00673 0.4238,0.00212 1.10344,0.00589 1.52722,0.00857 0.4238,0.00266 1.10343,0.00741 1.52721,0.0108 0.42379,0.00337 1.10344,0.00933 1.52722,0.01356 0.4238,0.00423 1.10343,0.01169 1.52721,0.01697 0.42378,0.00528 1.10343,0.01454 1.52722,0.0211 0.42378,0.00655 1.10342,0.01805 1.5272,0.02614 0.42379,0.00809 1.10344,0.02225 1.52723,0.03218 0.42377,0.00992 1.10342,0.02731 1.5272,0.03946 0.42378,0.01215 1.10344,0.03337 1.52722,0.04814 0.42379,0.01477 1.10345,0.04055 1.52723,0.05845 0.42378,0.01788 1.10342,0.049 1.5272,0.07056 0.42378,0.02155 1.10344,0.05896 1.52722,0.0848 0.42379,0.02582 1.10343,0.07062 1.52721,0.10142 0.42378,0.0308 1.10342,0.08405 1.52721,0.12059 0.42378,0.03655 1.10344,0.09969 1.52722,0.14283 0.42378,0.04315 1.10344,0.11749 1.52722,0.16813 0.42378,0.05066 1.10342,0.13783 1.52721,0.19704 0.42378,0.05919 1.10343,0.16086 1.52722,0.22964 0.42378,0.06879 1.10342,0.18668 1.52721,0.26624 0.42378,0.07955 1.10343,0.21568 1.52722,0.30717 0.42378,0.09151 1.10343,0.2477 1.52722,0.35239 0.42378,0.10469 1.10341,0.28311 1.5272,0.40227 0.42379,0.11917 1.10341,0.32174 1.52721,0.45663 0.42378,0.13489 1.10342,0.36377 1.52722,0.51564 0.42378,0.15189 1.10343,0.40895 1.52723,0.57913 0.42378,0.17017 1.1034,0.45826 1.5272,0.64743 0.42378,0.18919 1.10342,0.50672 1.52722,0.71609 0.42378,0.20934 1.10341,0.56182 1.52719,0.79287 0.4238,0.23107 1.10343,0.61968 1.52721,0.87243 0.4238,0.25274 1.10345,0.67408 1.52724,0.94921 0.42379,0.27515 1.10342,0.73586 1.5272,1.03391 0.4238,0.29805 1.10343,0.79405 1.52721,1.11433 0.4238,0.3203 1.10344,0.85208 1.52722,1.19417 0.4238,0.34207 1.10342,0.90854 1.52721,1.27128 0.42378,0.36275 1.10344,0.96041 1.52722,1.34325 0.42378,0.38286 1.10344,1.01428 1.52722,1.41612 0.42378,0.40186 1.10342,1.06218 1.52721,1.48024 0.42378,0.41806 1.10342,1.10151 1.5272,1.53287 0.42379,0.43135 1.10345,1.13353 1.52722,1.5761 0.42379,0.44255 1.10344,1.16256 1.52723,1.61358 0.42378,0.45104 1.10342,1.18247 1.5272,1.63718 0.42379,0.45473 1.10344,1.1859 1.52722,1.64021 0.42378,0.4543 1.10343,1.18376 1.52721,1.63416 0.42378,0.45041 1.10343,1.16966 1.52721,1.61209 0.42378,0.44241 1.10345,1.14749 1.52723,1.57669 0.42379,0.42921 1.10343,1.10596 1.52721,1.51683 0.42378,0.41088 1.10342,1.0556 1.52721,1.44455 0.42378,0.38895 1.10344,0.99715 1.52722,1.35867 0.42378,0.36154 1.10342,0.91732 1.52721,1.24709 0.42378,0.32977 1.10343,0.83504 1.52722,1.12976 0.42378,0.29474 1.10344,0.73886 1.52722,0.9946 0.42378,0.25572 1.10341,0.63594 1.52721,0.84852 0.42378,0.21259 1.1034,0.5163 1.5272,0.6837 0.42378,0.16741 1.10343,0.40296 1.52723,0.52286 0.42378,0.11992 1.10342,0.27115 1.52721,0.34142 0.42379,0.07026 1.10341,0.14501 1.52721,0.1651 0.42378,0.02008 1.10343,0.0099 1.52722,-0.02027 0.42379,-0.0301 1.10341,-0.11711 1.52721,-0.19685 0.42378,-0.07976 1.10342,-0.24912 1.52721,-0.37801 0.42379,-0.12887 1.10344,-0.37466 1.52722,-0.55096 0.4238,-0.1763 1.10342,-0.49818 1.5272,-0.71971 0.4238,-0.22151 1.10343,-0.61351 1.52721,-0.87695 0.4238,-0.26344 1.10344,-0.71981 1.52722,-1.02181 0.4238,-0.302 1.10343,-0.81831 1.52721,-1.15485 0.4238,-0.33651 1.10344,-0.90347 1.52722,-1.27067 0.42378,-0.36721 1.10344,-0.98248 1.52722,-1.37591 0.42378,-0.39342 1.10343,-1.04507 1.52721,-1.45968 0.42378,-0.41462 1.10342,-1.09669 1.5272,-1.52862 0.42379,-0.43193 1.10344,-1.14032 1.52723,-1.58457 0.42378,-0.44423 1.10344,-1.16559 1.52722,-1.61722 0.42378,-0.45161 1.10342,-1.18238 1.5272,-1.63777 0.42378,-0.4554 1.10344,-1.19031 1.52723,-1.64445 0.42378,-0.45415 1.10342,-1.17999 1.5272,-1.62871 0.42378,-0.44872 1.10344,-1.16448 1.52722,-1.60544 0.42379,-0.44096 1.10344,-1.143 1.52723,-1.57275 0.42378,-0.42977 1.10342,-1.11002 1.5272,-1.52471 0.42378,-0.41468 1.10343,-1.06637 1.52721,-1.4642 0.42378,-0.39784 1.10344,-1.02368 1.52722,-1.40314 0.42378,-0.37945 1.10342,-0.97227 1.52721,-1.33175 0.42378,-0.35949 1.10344,-0.92156 1.52722,-1.25917 0.42378,-0.33763 1.10344,-0.85892 1.52722,-1.17423 0.42378,-0.31529 1.10342,-0.80479 1.52721,-1.09831 0.42378,-0.29352 1.10342,-0.74611 1.52722,-1.01728 0.42378,-0.27114 1.10341,-0.68878 1.5272,-0.93711 0.42379,-0.24834 1.10343,-0.62612 1.52723,-0.85276 0.42378,-0.22665 1.10341,-0.57483 1.5272,-0.78079 0.42379,-0.20596 1.10343,-0.5184 1.52722,-0.70369 0.42379,-0.18527 1.10341,-0.46536 1.52721,-0.6317 0.42378,-0.16633 1.10343,-0.41861 1.52721,-0.56721 0.42379,-0.14861 1.10342,-0.37207 1.5272,-0.50383 0.4238,-0.13174 1.10343,-0.32953 1.52721,-0.44579 0.4238,-0.11627 1.10344,-0.29017 1.52722,-0.39221 0.4238,-0.10203 1.10343,-0.25419 1.52721,-0.34327 0.4238,-0.08909 1.10344,-0.22149 1.52722,-0.29886 0.4238,-0.07738 1.10342,-0.192 1.52721,-0.25887 0.42378,-0.06685 1.5272,-0.22301 1.5272,-0.22301"
       style="fill:none;stroke:#ec008c;stroke-width:1.19553;stroke-linecap:butt;stroke-linejoin:miter;stroke-miterlimit:10;stroke-dasharray:none;stroke-opacity:1"
       transform="matrix(1.3333333,0,0,-1.3333333,0.26533333,195.28267)"
       clip-path="url(#clipPath7)" />
    <path
       id="path8"
       d="m 30.24037,0 v 2.98883 m 0,-2.98883 2.84258,0.9236 M 30.24037,0 31.99716,-2.41801 M 30.24037,0 28.4836,-2.41801 M 30.24037,0 27.3978,0.9236"
       style="fill:none;stroke:#f68512;stroke-width:1.19553;stroke-linecap:butt;stroke-linejoin:miter;stroke-miterlimit:10;stroke-dasharray:none;stroke-opacity:1"
       transform="matrix(1.3333333,0,0,-1.3333333,0.26533333,195.28267)" />
    <path
       id="path9"
       d="m 34.02042,0 v 2.98883 m 0,-2.98883 2.84257,0.9236 M 34.02042,0 35.7772,-2.41801 M 34.02042,0 32.26364,-2.41801 M 34.02042,0 31.17786,0.9236"
       style="fill:none;stroke:#f68512;stroke-width:1.19553;stroke-linecap:butt;stroke-linejoin:miter;stroke-miterlimit:10;stroke-dasharray:none;stroke-opacity:1"
       transform="matrix(1.3333333,0,0,-1.3333333,0.26533333,195.28267)" />
    <path
       id="path10"
       d="m 36.28845,0 v 2.98883 m 0,-2.98883 2.84258,0.9236 M 36.28845,0 38.04524,-2.41801 M 36.28845,0 34.53166,-2.41801 M 36.28845,0 33.44588,0.9236"
       style="fill:none;stroke:#f68512;stroke-width:1.19553;stroke-linecap:butt;stroke-linejoin:miter;stroke-miterlimit:10;stroke-dasharray:none;stroke-opacity:1"
       transform="matrix(1.3333333,0,0,-1.3333333,0.26533333,195.28267)" />
    <path
       id="path11"
       d="m 39.31248,0 v 2.98883 m 0,-2.98883 2.84258,0.9236 M 39.31248,0 41.06927,-2.41801 M 39.31248,0 37.55571,-2.41801 M 39.31248,0 36.46992,0.9236"
       style="fill:none;stroke:#f68512;stroke-width:1.19553;stroke-linecap:butt;stroke-linejoin:miter;stroke-miterlimit:10;stroke-dasharray:none;stroke-opacity:1"
       transform="matrix(1.3333333,0,0,-1.3333333,0.26533333,195.28267)" />
    <path
       id="path12"
       d="m 52.92067,0 v 2.98883 m 0,-2.98883 2.84256,0.9236 M 52.92067,0 54.67744,-2.41801 M 52.92067,0 51.16388,-2.41801 M 52.92067,0 50.0781,0.9236"
       style="fill:none;stroke:#f68512;stroke-width:1.19553;stroke-linecap:butt;stroke-linejoin:miter;stroke-miterlimit:10;stroke-dasharray:none;stroke-opacity:1"
       transform="matrix(1.3333333,0,0,-1.3333333,0.26533333,195.28267)" />
    <path
       id="path13"
       d="m 75.60095,0 v 2.98883 m 0,-2.98883 2.84258,0.9236 M 75.60095,0 77.35774,-2.41801 M 75.60095,0 73.84416,-2.41801 M 75.60095,0 72.75838,0.9236"
       style="fill:none;stroke:#f68512;stroke-width:1.19553;stroke-linecap:butt;stroke-linejoin:miter;stroke-miterlimit:10;stroke-dasharray:none;stroke-opacity:1"
       transform="matrix(1.3333333,0,0,-1.3333333,0.26533333,195.28267)" />
    <path
       id="path14"
       d="M 86.9411,0 V 2.98883 M 86.9411,0 89.78366,0.9236 M 86.9411,0 88.69788,-2.41801 M 86.9411,0 85.18431,-2.41801 M 86.9411,0 84.09853,0.9236"
       style="fill:none;stroke:#f68512;stroke-width:1.19553;stroke-linecap:butt;stroke-linejoin:miter;stroke-miterlimit:10;stroke-dasharray:none;stroke-opacity:1"
       transform="matrix(1.3333333,0,0,-1.3333333,0.26533333,195.28267)" />
    <path
       id="path15"
       d="m 92.61116,0 v 2.98883 m 0,-2.98883 2.84258,0.9236 M 92.61116,0 94.36795,-2.41801 M 92.61116,0 90.85437,-2.41801 M 92.61116,0 89.76859,0.9236"
       style="fill:none;stroke:#f68512;stroke-width:1.19553;stroke-linecap:butt;stroke-linejoin:miter;stroke-miterlimit:10;stroke-dasharray:none;stroke-opacity:1"
       transform="matrix(1.3333333,0,0,-1.3333333,0.26533333,195.28267)" />
    <path
       id="path16"
       d="m 98.28123,0 v 2.98883 m 0,-2.98883 2.84258,0.9236 M 98.28123,0 100.03802,-2.41801 M 98.28123,0 96.52446,-2.41801 M 98.28123,0 95.43866,0.9236"
       style="fill:none;stroke:#f68512;stroke-width:1.19553;stroke-linecap:butt;stroke-linejoin:miter;stroke-miterlimit:10;stroke-dasharray:none;stroke-opacity:1"
       transform="matrix(1.3333333,0,0,-1.3333333,0.26533333,195.28267)" />
    <path
       id="path17"
       d="m 120.96153,0 v 2.98883 m 0,-2.98883 2.84257,0.9236 M 120.96153,0 122.7183,-2.41801 M 120.96153,0 119.20474,-2.41801 M 120.96153,0 118.11896,0.9236"
       style="fill:none;stroke:#f68512;stroke-width:1.19553;stroke-linecap:butt;stroke-linejoin:miter;stroke-miterlimit:10;stroke-dasharray:none;stroke-opacity:1"
       transform="matrix(1.3333333,0,0,-1.3333333,0.26533333,195.28267)" />
    <path
       id="path30"
       d="m 39.79303,0 c 0,1.10046 -0.89209,1.99255 -1.99255,1.99255 C 36.7,1.99255 35.80792,1.10046 35.80792,0 c 0,-1.10046 0.89208,-1.99255 1.99256,-1.99255 1.10046,0 1.99255,0.89209 1.99255,1.99255 z"
       style="fill:#ed1c24;fill-opacity:1;fill-rule:nonzero;stroke:#ed1c24;stroke-width:1.19553;stroke-linecap:butt;stroke-linejoin:miter;stroke-miterlimit:10;stroke-dasharray:none;stroke-opacity:1"
       transform="matrix(1.3333333,0,0,-1.3333333,0.26533333,195.28267)" />
    <path
       id="path31"
       d="m 92.7137,0 c 0,1.10046 -0.89209,1.99255 -1.99255,1.99255 -1.10048,0 -1.99256,-0.89209 -1.99256,-1.99255 0,-1.10046 0.89208,-1.99255 1.99256,-1.99255 1.10046,0 1.99255,0.89209 1.99255,1.99255 z"
       style="fill:#ed1c24;fill-opacity:1;fill-rule:nonzero;stroke:#ed1c24;stroke-width:1.19553;stroke-linecap:butt;stroke-linejoin:miter;stroke-miterlimit:10;stroke-dasharray:none;stroke-opacity:1"
       transform="matrix(1.3333333,0,0,-1.3333333,0.26533333,195.28267)" />
  </g>
</svg>
