<svg width="97" height="26" viewBox="0 0 97 26" fill="none" xmlns="http://www.w3.org/2000/svg">
<path d="M17.8017 16.802C17.8002 15.9184 17.6172 15.0445 17.264 14.2345C16.9108 13.4246 16.395 12.6959 15.7485 12.0935C15.5774 11.939 15.4672 11.7284 15.4377 11.4998C15.4081 11.2712 15.4611 11.0395 15.5872 10.8466L15.6517 10.7391C16.3501 9.85431 16.7289 8.75951 16.7267 7.63237V5.21366C16.6848 3.81628 16.1 2.49022 15.0965 1.51684C14.0931 0.543467 12.7498 -0.000628697 11.3518 5.45177e-07H0.322494C0.144385 5.45177e-07 0 0.144386 0 0.322495V25.1761C0 25.3542 0.144386 25.4985 0.322494 25.4985H10.9111C12.699 25.5332 14.4278 24.8581 15.7192 23.6211C17.0106 22.3841 17.7594 20.6859 17.8017 18.8982V16.802ZM2.6122 3.60119C2.6026 3.46885 2.62159 3.33599 2.6679 3.21165C2.7142 3.0873 2.78673 2.97438 2.88055 2.88055C2.97438 2.78673 3.0873 2.7142 3.21164 2.6679C3.33599 2.62159 3.46885 2.6026 3.60119 2.6122H11.341C12.055 2.58899 12.7489 2.8498 13.2708 3.33746C13.7928 3.82511 14.1 4.49982 14.1253 5.21366V7.63237C14.0837 8.33761 13.7704 8.99929 13.2512 9.47839C12.732 9.95749 12.0474 10.2167 11.341 10.2016H3.60119C3.4683 10.2096 3.33525 10.1891 3.21092 10.1415C3.08658 10.0939 2.97384 10.0204 2.88022 9.92575C2.7866 9.83111 2.71426 9.71757 2.66804 9.59273C2.62182 9.46789 2.60278 9.33463 2.6122 9.20184V3.60119ZM15.1895 18.8982C15.1701 19.4432 15.0434 19.979 14.8167 20.4751C14.5901 20.9711 14.2679 21.4176 13.8685 21.789C13.4691 22.1604 13.0005 22.4494 12.4893 22.6396C11.9782 22.8297 11.4346 22.9172 10.8896 22.8971H3.60119C3.4683 22.9051 3.33525 22.8846 3.21092 22.837C3.08658 22.7895 2.97384 22.7159 2.88022 22.6213C2.7866 22.5266 2.71426 22.4131 2.66804 22.2883C2.62182 22.1634 2.60278 22.0302 2.6122 21.8974V13.8028C2.60278 13.67 2.62182 13.5367 2.66804 13.4119C2.71426 13.287 2.7866 13.1735 2.88022 13.0788C2.97384 12.9842 3.08658 12.9106 3.21092 12.8631C3.33525 12.8155 3.4683 12.795 3.60119 12.803H10.9111C11.4561 12.7829 11.9997 12.8704 12.5108 13.0605C13.022 13.2507 13.4906 13.5397 13.89 13.9111C14.2894 14.2825 14.6116 14.729 14.8382 15.225C15.0649 15.7211 15.1916 16.2569 15.211 16.802L15.1895 18.8982Z" fill="#311317"/>
<path d="M40.6501 25.4934C40.8237 25.4963 40.9688 25.3612 40.9738 25.1877C41.0235 23.4613 40.7347 21.7408 40.1227 20.1236L36.4893 11.6743C34.9091 7.98711 33.2644 4.14943 32.3184 2.06396L31.4896 0.191945C31.438 0.0752527 31.3223 0 31.1947 0H29.6136C29.4867 0 29.3717 0.0743475 29.3196 0.189982L29.0612 0.763236C28.4592 2.14996 26.3522 7.03038 24.3635 11.6958L24.0625 12.4268C22.7725 15.4367 21.5471 18.2747 20.6871 20.1666C20.0976 21.7648 19.8233 23.4609 19.8782 25.1615C19.8838 25.3326 20.0255 25.4663 20.1967 25.4663H22.1446C22.3245 25.4663 22.4692 25.3192 22.4709 25.1394C22.4839 23.7931 22.6903 22.455 23.0843 21.1664L23.267 20.7471C23.3748 20.4598 23.5005 20.1794 23.6432 19.9077C23.6504 19.894 23.6566 19.8798 23.6621 19.8653C23.7304 19.6881 23.8518 19.5361 24.0098 19.4301C24.1743 19.3198 24.3699 19.2652 24.5678 19.2744H36.2851C36.4782 19.2688 36.6681 19.3253 36.8267 19.4356C36.9786 19.5411 37.0943 19.6907 37.1583 19.8638C37.164 19.8793 37.1704 19.8945 37.1779 19.9091C37.3094 20.1636 37.4276 20.4248 37.532 20.6915C37.5464 20.7282 37.5519 20.7677 37.5597 20.8064C37.5833 20.9239 37.6702 21.0358 37.7255 21.1556C38.2019 22.4205 38.4199 23.7668 38.3679 25.1151C38.3608 25.3001 38.5048 25.4581 38.69 25.4612L40.6501 25.4934ZM35.1133 16.3075C35.0236 16.438 34.9031 16.5445 34.7625 16.6176C34.6219 16.6907 34.4655 16.7282 34.3071 16.7267H26.5135C26.3483 16.7273 26.1856 16.6875 26.0394 16.6107C25.8932 16.5338 25.7681 16.4223 25.675 16.286C25.5877 16.1516 25.5361 15.9972 25.5248 15.8374C25.5135 15.6776 25.543 15.5175 25.6105 15.3722C26.019 14.4585 26.3952 13.5555 26.7392 12.7063L29.4912 6.25639C29.5806 6.07381 29.72 5.92034 29.8932 5.81379C30.0663 5.70723 30.2661 5.65197 30.4694 5.6544C30.6568 5.66241 30.8376 5.72596 30.9889 5.83698C31.1401 5.948 31.2549 6.10147 31.3186 6.27789L31.7916 7.35287C32.5011 8.99759 33.3074 10.8573 34.0921 12.7278C34.2748 13.1255 34.4361 13.5448 34.6081 13.9533C34.7801 14.3617 34.9843 14.8885 35.1886 15.3507C35.2563 15.5039 35.2849 15.6716 35.2718 15.8386C35.2586 16.0056 35.2042 16.1667 35.1133 16.3075Z" fill="#311317"/>
<path d="M50.1115 25.4986H53.5944C55.4279 25.5332 57.2005 24.84 58.5241 23.5708C59.8478 22.3015 60.6147 20.5596 60.657 18.7262C60.657 17.4577 60.0443 14.781 58.5823 14.05L58.3888 13.9748L46.6243 9.34385C46.5845 9.3282 46.5482 9.30479 46.5176 9.275L46.2139 8.97974C46.1895 8.95599 46.1689 8.92855 46.1534 8.89821C45.8202 8.24627 45.6406 7.52644 45.6288 6.79393C45.6411 6.22173 45.7676 5.65776 46.0008 5.13507C46.2339 4.61238 46.5691 4.1415 46.9866 3.75003C47.4041 3.35856 47.8955 3.05437 48.4321 2.8553C48.9687 2.65624 49.5396 2.5663 50.1115 2.59075H53.5944C54.7466 2.55591 55.8659 2.97835 56.7078 3.76585C57.5496 4.55334 58.0458 5.64192 58.0878 6.79393V7.65391C58.0878 7.83202 58.2322 7.97641 58.4103 7.97641H60.3345C60.5126 7.97641 60.657 7.83202 60.657 7.65391V6.84768C60.6175 5.01338 59.8515 3.26977 58.5272 1.99992C57.2029 0.73007 55.4287 0.0378358 53.5944 0.0752976H50.1115C48.2771 0.0378358 46.5029 0.73007 45.1786 1.99992C43.8544 3.26977 43.0883 5.01338 43.0488 6.84768C43.0488 7.91606 43.6965 10.5559 45.1714 11.5697C45.1892 11.582 45.2104 11.5883 45.232 11.5883C45.2456 11.5883 45.259 11.5909 45.2717 11.5958L56.9483 16.1248C57.0749 16.1685 57.1904 16.2393 57.2869 16.3321C57.3834 16.4249 57.4586 16.5375 57.5073 16.6623C57.832 17.288 58.012 17.9786 58.0341 18.6832C58.0031 19.8333 57.5193 20.9246 56.6878 21.7197C55.8564 22.5149 54.7447 22.9496 53.5944 22.9294H50.1115C48.9603 22.9642 47.8422 22.5414 47.002 21.7536C46.1619 20.9659 45.6681 19.8773 45.6288 18.7262V17.834C45.6288 17.6559 45.4844 17.5115 45.3063 17.5115H43.3713C43.1932 17.5115 43.0488 17.6559 43.0488 17.834V18.7262C43.0911 20.5596 43.8581 22.3015 45.1817 23.5708C46.5054 24.84 48.2779 25.5332 50.1115 25.4986Z" fill="#311317"/>
<path d="M76.0242 23.2196C76.0242 23.0415 75.8798 22.8971 75.7017 22.8971H71.7242C71.5914 22.9051 71.4583 22.8846 71.334 22.837C71.2097 22.7895 71.0969 22.7159 71.0033 22.6213C70.9097 22.5266 70.8373 22.4131 70.7911 22.2883C70.7449 22.1634 70.7258 22.0302 70.7353 21.8974V3.62269C70.7257 3.49035 70.7447 3.35749 70.791 3.23314C70.8373 3.1088 70.9098 2.99588 71.0036 2.90205C71.0974 2.80823 71.2104 2.7357 71.3347 2.6894C71.4591 2.64309 71.5919 2.6241 71.7242 2.6337H75.7017C75.8798 2.6337 76.0242 2.48932 76.0242 2.31121V0.322494C76.0242 0.144385 75.8798 0 75.7017 0H63.2534C63.0753 0 62.9309 0.144386 62.9309 0.322494V2.28971C62.9309 2.46782 63.0753 2.6122 63.2534 2.6122H67.1771C67.3103 2.60096 67.4443 2.61874 67.57 2.66432C67.6957 2.70989 67.81 2.78217 67.905 2.87618C68 2.97019 68.0735 3.08369 68.1205 3.20885C68.1674 3.33402 68.1866 3.46787 68.1768 3.60119V21.8759C68.1864 22.0096 68.1671 22.1439 68.1203 22.2695C68.0734 22.3952 68.0001 22.5093 67.9053 22.6041C67.8105 22.6989 67.6964 22.7722 67.5707 22.8191C67.4451 22.8659 67.3108 22.8852 67.1771 22.8756H63.2534C63.0753 22.8756 62.9309 23.02 62.9309 23.1981V25.1546C62.9309 25.3327 63.0753 25.4771 63.2534 25.4771H75.7017C75.8798 25.4771 76.0242 25.3327 76.0242 25.1546V23.2196Z" fill="#311317"/>
<path d="M85.514 25.4986H88.9755C90.8098 25.5361 92.584 24.8438 93.9083 23.574C95.2326 22.3041 95.9986 20.5605 96.0381 18.7262C96.0381 17.4577 95.4361 14.781 93.9741 14.0501L93.7914 13.9748L82.0269 9.34385C81.9871 9.3282 81.9508 9.30479 81.9202 9.275L81.6173 8.98052C81.5923 8.95626 81.5714 8.92816 81.5558 8.89707C81.2273 8.24375 81.0481 7.52539 81.0314 6.79393C81.0734 5.64192 81.5696 4.55334 82.4114 3.76585C83.2533 2.97835 84.3725 2.55591 85.5248 2.59075H88.9755C90.1285 2.55305 91.2494 2.97453 92.0919 3.76262C92.9344 4.5507 93.4296 5.64095 93.4689 6.79393V7.65391C93.4689 7.83202 93.6133 7.97641 93.7914 7.97641H95.7156C95.8937 7.97641 96.0381 7.83202 96.0381 7.65391V6.84768C95.9986 5.01338 95.2326 3.26977 93.9083 1.99992C92.584 0.73007 90.8098 0.0378358 88.9755 0.0752976H85.514C83.6797 0.0378358 81.9055 0.73007 80.5812 1.99992C79.257 3.26977 78.4909 5.01338 78.4514 6.84768C78.4514 7.91556 79.0985 10.5535 80.5719 11.5683C80.5915 11.5818 80.6126 11.5927 80.6347 11.6012L92.3402 16.1248C92.466 16.1698 92.5809 16.241 92.6773 16.3336C92.7736 16.4262 92.8492 16.5383 92.8992 16.6623C93.2238 17.288 93.4038 17.9786 93.4259 18.6832C93.3949 19.8352 92.9096 20.9281 92.0759 21.7236C91.2421 22.5191 90.1276 22.9525 88.9755 22.9294H85.514C84.3618 22.9642 83.2426 22.5418 82.4007 21.7543C81.5588 20.9668 81.0627 19.8782 81.0206 18.7262V17.834C81.0206 17.6559 80.8762 17.5115 80.6981 17.5115H78.7739C78.5958 17.5115 78.4514 17.6559 78.4514 17.834V18.7262C78.4937 20.5596 79.2606 22.3015 80.5843 23.5708C81.9079 24.84 83.6805 25.5332 85.514 25.4986Z" fill="#311317"/>
</svg>