<?xml version="1.0" encoding="UTF-8" standalone="no"?>
<!DOCTYPE svg PUBLIC "-//W3C//DTD SVG 1.1//EN" "http://www.w3.org/Graphics/SVG/1.1/DTD/svg11.dtd">
<svg width="100%" height="100%" viewBox="0 0 2201 363" version="1.1" xmlns="http://www.w3.org/2000/svg" xmlns:xlink="http://www.w3.org/1999/xlink" xml:space="preserve" xmlns:serif="http://www.serif.com/" style="fill-rule:evenodd;clip-rule:evenodd;stroke-linejoin:round;stroke-miterlimit:2;">
    <g transform="matrix(1.56256,0,0,1.56256,-311.225,1.5989e-14)">
        <g id="dm-logo.svg" transform="matrix(0.921231,0,0,0.921231,314.33,116.846)">
            <g transform="matrix(1,0,0,1,-125,-125)">
                <g id="logo">
                    <g>
                        <g>
                            <path id="SVGID_1_" d="M37.3,37.3C14.6,60.1 1.7,90.4 1,122.5L1,127.2C1.6,159.5 14.5,189.8 37.3,212.5C60.1,235.3 90.4,248.2 122.5,248.8L127.3,248.8C127.8,248.8 128.3,248.8 128.7,248.7C130.2,248.6 131.6,248.5 133.1,248.4C134.1,248.3 135,248.2 136,248.1C145.9,246.8 155.3,243.7 163.9,239.1C165.3,238.4 166.6,237.6 167.9,236.8C181.5,228.5 192.7,216.3 199.8,201.1C205,190.1 207.6,178.3 207.6,166C207.6,152 204.1,138.3 197.4,126.1L197.1,125.6C188.7,110.6 175.5,98.3 159.9,91C159.5,90.8 159.2,90.7 158.8,90.5C158.1,90.2 157.3,89.9 156.6,89.5C156.5,89.5 156.4,89.4 156.3,89.4C165.7,97.8 171.8,109.8 172.2,123.3L172.2,126C171.5,151.1 151.3,171.3 126.3,172L123.6,172C110.9,171.8 98.7,169 87.4,163.7C70.5,155.8 56.3,142.4 47.3,126.1L47,125.4C40.1,112.6 36.4,98.1 36.4,83.4C36.4,70.3 39.2,57.6 44.7,45.8C45.3,44.6 45.9,43.4 46.5,42.2C46.8,41.7 47.1,41.1 47.4,40.6C47.8,39.8 48.3,39 48.8,38.2C49,37.8 49.3,37.4 49.5,37C49.8,36.4 50.2,35.9 50.6,35.3C50.7,35.1 50.8,34.9 51,34.7C51.4,34.1 51.8,33.5 52.2,32.9C54,30.3 55.9,27.8 58,25.4C58.5,24.9 58.9,24.3 59.4,23.8C59.5,23.6 59.7,23.5 59.9,23.3C60.4,22.7 61,22.1 61.5,21.6L61.6,21.5C62.1,21 62.6,20.4 63.2,19.9C63.4,19.7 63.6,19.5 63.8,19.3C64.2,18.9 64.6,18.6 65,18.2C65.3,17.9 65.6,17.6 66,17.3C66.5,16.9 66.9,16.5 67.4,16.1L67.5,16C68.1,15.5 68.8,14.9 69.4,14.4C70.1,13.8 70.8,13.3 71.5,12.8C59,19.1 47.4,27.2 37.3,37.3" style="fill:url(#_Linear1);fill-rule:nonzero;"/>
                        </g>
                        <g>
                            <path id="SVGID_4_" d="M122.7,1C120.7,1.1 118.8,1.2 116.9,1.4C115.9,1.5 115,1.6 114,1.7C113,1.8 112.1,2 111.1,2.1C110.1,2.3 109.2,2.4 108.3,2.6C106.4,3 104.6,3.4 102.7,3.9C100.9,4.4 99.1,5 97.3,5.6C95.5,6.2 93.8,6.9 92,7.7C82.5,11.8 73.8,17.7 66.5,25C65.8,25.7 65.2,26.3 64.5,27C58.7,33.4 53.8,40.6 50,48.6C44.8,59.6 42.2,71.4 42.2,83.7C42.2,97.6 45.7,111.4 52.4,123.5L52.7,124C61.1,139 74.3,151.3 89.9,158.6C91.1,159.2 92.4,159.7 93.6,160.2C84.2,151.8 78.1,139.7 77.7,126.2L77.7,123.5C78.4,98.4 98.6,78.3 123.6,77.6L128.1,77.6C129.9,77.7 131.7,77.8 133.4,77.9C134.2,78 135,78.1 135.7,78.2C136.5,78.3 137.3,78.4 138,78.5L140.3,78.9C140.7,79 141,79 141.4,79.1C141.8,79.2 142.2,79.3 142.6,79.3C143,79.4 143.3,79.4 143.6,79.5C144.1,79.6 144.6,79.7 145.1,79.8C145.4,79.9 145.7,80 146.1,80C146.5,80.1 146.8,80.2 147.2,80.3C147.5,80.4 147.9,80.5 148.3,80.6C148.7,80.7 149,80.8 149.4,80.9C150.2,81.1 151.1,81.4 151.9,81.7L152.7,82C153.7,82.3 154.7,82.7 155.7,83.1L155.9,83.2C156.1,83.3 156.2,83.3 156.4,83.4C156.9,83.6 157.5,83.8 158,84C159,84.4 160,84.8 161,85.3C161.4,85.5 161.8,85.7 162.2,85.8C179.1,93.7 193.3,107 202.3,123.4L202.7,124.1C209.6,136.9 213.3,151.4 213.3,166.1C213.3,179.2 210.5,191.9 205,203.7C204.4,204.9 203.8,206.2 203.2,207.3C202.9,207.8 202.6,208.4 202.3,208.9C201.9,209.7 201.4,210.5 200.9,211.3C200.7,211.7 200.4,212.1 200.2,212.5C199.9,213 199.6,213.5 199.3,214C199.1,214.4 198.8,214.8 198.5,215.2C198.3,215.5 198.1,215.8 197.9,216.2C197.6,216.7 197.2,217.2 196.9,217.7C196.7,217.9 196.6,218.1 196.4,218.3C196,218.9 195.6,219.4 195.1,220C194.6,220.7 194,221.4 193.4,222.1C192.5,223.2 191.5,224.4 190.5,225.5C190.2,225.9 189.8,226.3 189.5,226.6C189.4,226.7 189.3,226.8 189.2,226.9C188.7,227.4 188.2,228 187.7,228.5L185.5,230.7C185.3,230.9 185,231.1 184.8,231.4C184.4,231.8 183.9,232.2 183.5,232.6C183.2,232.8 182.9,233.1 182.6,233.3C182.1,233.7 181.6,234.2 181,234.6C180,235.4 179.1,236.2 178.1,236.9C190.6,230.9 202.2,222.7 212.3,212.7C235.1,189.9 248,159.7 248.6,127.5L248.6,122.7C248,90.4 235.1,60.1 212.3,37.4C190,14.7 160,1.8 128,1.1L126,1L122.7,1Z" style="fill:url(#_Linear2);fill-rule:nonzero;"/>
                        </g>
                    </g>
                </g>
            </g>
        </g>
        <g id="dm-logo-text2.svg" transform="matrix(1.17886,0,0,1.17886,1018.5,116)">
            <g transform="matrix(1,0,0,1,-499.65,-98.4)">
                <g id="assets" transform="matrix(1,0,0,1,160.8,-442.6)">
                    <g id="XMLID_200_">
                        <path d="M-115.3,538.7C-115.3,510.4 -91.5,487.3 -63.2,487.3C-47.5,487.3 -36.4,493.4 -28,501.5L-37.9,511.4C-43.9,505.8 -52.1,501.4 -63.2,501.4C-83.9,501.4 -100,518 -100,538.7C-100,559.4 -83.8,576 -63.2,576C-49.8,576 -42.2,570.6 -37.3,565.7C-33.3,561.7 -30.7,555.9 -29.7,548L-63.3,548L-63.3,534L-16,534C-15.5,536.5 -15.2,539.5 -15.2,542.8C-15.2,553.3 -18.1,566.4 -27.4,575.6C-36.4,585 -47.9,590 -63.2,590C-91.5,590.1 -115.3,567 -115.3,538.7ZM23,523.9C4.7,523.9 -10.2,537.8 -10.2,557C-10.2,576 4.7,590.1 23,590.1C41.3,590.1 56.2,576.1 56.2,557C56.2,537.8 41.2,523.9 23,523.9ZM23,577C13,577 4.3,568.7 4.3,557C4.3,545.1 12.9,537 23,537C33,537 41.7,545.1 41.7,557C41.6,568.8 33,577 23,577ZM95.4,523.9C77.1,523.9 62.2,537.8 62.2,557C62.2,576 77.1,590.1 95.4,590.1C113.7,590.1 128.6,576.1 128.6,557C128.6,537.8 113.7,523.9 95.4,523.9ZM95.4,577C85.4,577 76.7,568.7 76.7,557C76.7,545.1 85.3,537 95.4,537C105.4,537 114.1,545.1 114.1,557C114,568.8 105.4,577 95.4,577ZM184.3,525.9L184.3,531.3L183.8,531.3C180.5,527.4 174.3,523.9 166.4,523.9C149.9,523.9 134.7,538.4 134.7,557.1C134.7,575.6 149.9,590 166.4,590C174.3,590 180.6,586.5 183.8,582.5L184.3,582.5L184.3,587.3C184.3,600 177.5,606.7 166.6,606.7C157.7,606.7 152.2,600.3 149.9,594.9L137.2,600.2C140.8,609 150.5,619.7 166.5,619.7C183.5,619.7 197.9,609.7 197.9,585.3L197.9,525.9L184.3,525.9ZM167.6,577C157.6,577 149.2,568.6 149.2,557.1C149.2,545.5 157.6,536.9 167.6,536.9C177.5,536.9 185.3,545.4 185.3,557.1C185.3,568.6 177.5,577 167.6,577ZM208.1,490.8L222.6,490.8L222.6,588L208.1,588L208.1,490.8ZM262.4,577C255,577 249.7,573.6 246.4,567L290.6,548.7L289.1,544.9C286.3,537.5 278,523.9 260.8,523.9C243.8,523.9 229.6,537.3 229.6,557C229.6,575.5 243.6,590.1 262.4,590.1C277.6,590.1 286.3,580.8 290,575.4L278.7,567.9C275,573.4 269.8,577 262.4,577ZM261.3,536.7C267.1,536.7 271.9,539.6 273.6,543.7L244,556C243.6,543.2 253.9,536.7 261.3,536.7Z" style="fill:white;fill-rule:nonzero;"/>
                    </g>
                    <g id="XMLID_199_">
                        <path d="M322.3,588.1L322.3,501.2L348.9,501.2C362.2,501.2 372.9,505.2 380.9,513.3C388.9,521.4 392.9,531.8 392.9,544.7C392.9,557.6 388.9,568 380.9,576.1C372.9,584.2 362.2,588.2 348.9,588.2L322.3,588.1ZM333.5,577.4L348.9,577.4C358.9,577.4 366.9,574.5 372.7,568.8C378.6,563.1 381.5,555 381.5,544.7C381.5,534.4 378.6,526.4 372.7,520.6C366.8,514.8 358.9,511.9 348.9,511.9L333.5,511.9L333.5,577.4ZM429.4,590C420.4,590 413.1,587 407.5,581C401.9,575 399.1,567.5 399.1,558.3C399.1,549.6 401.8,542.2 407.3,536C412.8,529.8 419.7,526.7 428.2,526.7C437,526.7 444.1,529.6 449.4,535.3C454.7,541 457.3,548.7 457.3,558.4L457.2,560.5L410.2,560.5C410.5,566.5 412.5,571.2 416.2,574.7C419.9,578.2 424.2,579.9 429.1,579.9C437.1,579.9 442.5,576.5 445.4,569.7L455.4,573.8C453.5,578.4 450.3,582.3 445.8,585.4C441.4,588.4 435.9,590 429.4,590ZM445.5,551.2C445.3,547.8 443.7,544.6 440.8,541.5C437.9,538.4 433.7,536.9 428,536.9C423.9,536.9 420.3,538.2 417.3,540.8C414.3,543.4 412.2,546.9 411.1,551.2L445.5,551.2ZM492.6,590C483.6,590 476.3,587 470.7,581C465.1,575 462.3,567.5 462.3,558.3C462.3,549.6 465,542.2 470.5,536C476,529.8 482.9,526.7 491.4,526.7C500.2,526.7 507.3,529.6 512.6,535.3C517.9,541 520.5,548.7 520.5,558.4L520.4,560.5L473.4,560.5C473.7,566.5 475.7,571.2 479.4,574.7C483.1,578.2 487.4,579.9 492.3,579.9C500.3,579.9 505.7,576.5 508.6,569.7L518.6,573.8C516.7,578.4 513.5,582.3 509,585.4C504.6,588.4 499.1,590 492.6,590ZM508.7,551.2C508.5,547.8 506.9,544.6 504,541.5C501.1,538.4 496.9,536.9 491.2,536.9C487.1,536.9 483.5,538.2 480.5,540.8C477.5,543.4 475.4,546.9 474.3,551.2L508.7,551.2ZM559.5,590C555,590 550.9,589 547.3,587.1C543.7,585.2 541,582.7 539.2,579.8L538.7,579.8L539.2,588.1L539.2,614.3L528,614.3L528,528.6L538.7,528.6L538.7,536.9L539.2,536.9C541,534 543.7,531.6 547.3,529.6C550.9,527.7 555,526.7 559.5,526.7C567.2,526.7 573.8,529.7 579.4,535.8C585,541.9 587.8,549.4 587.8,558.4C587.8,567.4 585,574.9 579.4,581C573.9,587 567.2,590 559.5,590ZM557.7,579.8C562.9,579.8 567.3,577.8 571,573.9C574.7,570 576.6,564.8 576.6,558.3C576.6,551.8 574.7,546.6 571,542.7C567.3,538.8 562.8,536.8 557.7,536.8C552.4,536.8 548,538.7 544.3,542.6C540.6,546.5 538.8,551.7 538.8,558.3C538.8,564.9 540.6,570.1 544.3,574C548,577.9 552.5,579.8 557.7,579.8ZM598.3,588.1L598.3,501.2L609.5,501.2L639.7,554.1L640.2,554.1L670.4,501.2L681.6,501.2L681.6,588.1L670.4,588.1L670.4,536.5L670.9,521.9L670.4,521.9L643.2,569.6L636.6,569.6L609.4,521.9L608.9,521.9L609.4,536.5L609.4,588.1L598.3,588.1ZM706.9,513.7C705.4,515.2 703.5,516 701.3,516C699.1,516 697.3,515.2 695.7,513.7C694.2,512.2 693.4,510.3 693.4,508.1C693.4,505.9 694.2,504.1 695.7,502.5C697.2,501 699.1,500.2 701.3,500.2C703.5,500.2 705.3,501 706.9,502.5C708.4,504 709.2,505.9 709.2,508.1C709.2,510.3 708.5,512.1 706.9,513.7ZM706.9,588.1L695.7,588.1L695.7,528.6L706.9,528.6L706.9,588.1ZM729.2,528.6L729.2,536.9L729.7,536.9C731.3,534.1 733.9,531.7 737.3,529.7C740.8,527.7 744.5,526.7 748.5,526.7C755.9,526.7 761.5,529 765.4,533.5C769.3,538 771.2,544.1 771.2,551.7L771.2,588.1L760,588.1L760,553.4C760,542.4 755.1,536.9 745.3,536.9C740.7,536.9 736.9,538.7 734,542.4C731.1,546.1 729.6,550.3 729.6,555.2L729.6,588.1L718.4,588.1L718.4,528.6L729.2,528.6ZM807,590C799.3,590 792.7,587 787.1,580.9C781.5,574.8 778.7,567.3 778.7,558.3C778.7,549.3 781.5,541.8 787.1,535.7C792.7,529.6 799.3,526.6 807,526.6C811.5,526.6 815.6,527.6 819.2,529.5C822.8,531.4 825.5,533.9 827.3,536.8L827.8,536.8L827.3,528.5L827.3,501.2L838.5,501.2L838.5,588.1L827.8,588.1L827.8,579.8L827.3,579.8C825.5,582.7 822.8,585.1 819.2,587.1C815.6,589 811.5,590 807,590ZM808.8,579.8C814.1,579.8 818.5,577.9 822.2,574C825.9,570.1 827.7,564.9 827.7,558.3C827.7,551.7 825.9,546.5 822.2,542.6C818.5,538.7 814,536.8 808.8,536.8C803.6,536.8 799.2,538.8 795.5,542.7C791.8,546.6 789.9,551.8 789.9,558.3C789.9,564.8 791.8,570 795.5,573.9C799.2,577.8 803.6,579.8 808.8,579.8Z" style="fill:white;fill-rule:nonzero;"/>
                    </g>
                </g>
            </g>
        </g>
    </g>
    <g id="assets1" serif:id="assets" transform="matrix(1.84172,0,0,1.84172,656.35,-815.468)">
        <g id="XMLID_200_1" serif:id="XMLID_200_">
            <path d="M-115.3,538.7C-115.3,510.4 -91.5,487.3 -63.2,487.3C-47.5,487.3 -36.4,493.4 -28,501.5L-37.9,511.4C-43.9,505.8 -52.1,501.4 -63.2,501.4C-83.9,501.4 -100,518 -100,538.7C-100,559.4 -83.8,576 -63.2,576C-49.8,576 -42.2,570.6 -37.3,565.7C-33.3,561.7 -30.7,555.9 -29.7,548L-63.3,548L-63.3,534L-16,534C-15.5,536.5 -15.2,539.5 -15.2,542.8C-15.2,553.3 -18.1,566.4 -27.4,575.6C-36.4,585 -47.9,590 -63.2,590C-91.5,590.1 -115.3,567 -115.3,538.7ZM23,523.9C4.7,523.9 -10.2,537.8 -10.2,557C-10.2,576 4.7,590.1 23,590.1C41.3,590.1 56.2,576.1 56.2,557C56.2,537.8 41.2,523.9 23,523.9ZM23,577C13,577 4.3,568.7 4.3,557C4.3,545.1 12.9,537 23,537C33,537 41.7,545.1 41.7,557C41.6,568.8 33,577 23,577ZM95.4,523.9C77.1,523.9 62.2,537.8 62.2,557C62.2,576 77.1,590.1 95.4,590.1C113.7,590.1 128.6,576.1 128.6,557C128.6,537.8 113.7,523.9 95.4,523.9ZM95.4,577C85.4,577 76.7,568.7 76.7,557C76.7,545.1 85.3,537 95.4,537C105.4,537 114.1,545.1 114.1,557C114,568.8 105.4,577 95.4,577ZM184.3,525.9L184.3,531.3L183.8,531.3C180.5,527.4 174.3,523.9 166.4,523.9C149.9,523.9 134.7,538.4 134.7,557.1C134.7,575.6 149.9,590 166.4,590C174.3,590 180.6,586.5 183.8,582.5L184.3,582.5L184.3,587.3C184.3,600 177.5,606.7 166.6,606.7C157.7,606.7 152.2,600.3 149.9,594.9L137.2,600.2C140.8,609 150.5,619.7 166.5,619.7C183.5,619.7 197.9,609.7 197.9,585.3L197.9,525.9L184.3,525.9ZM167.6,577C157.6,577 149.2,568.6 149.2,557.1C149.2,545.5 157.6,536.9 167.6,536.9C177.5,536.9 185.3,545.4 185.3,557.1C185.3,568.6 177.5,577 167.6,577ZM208.1,490.8L222.6,490.8L222.6,588L208.1,588L208.1,490.8ZM262.4,577C255,577 249.7,573.6 246.4,567L290.6,548.7L289.1,544.9C286.3,537.5 278,523.9 260.8,523.9C243.8,523.9 229.6,537.3 229.6,557C229.6,575.5 243.6,590.1 262.4,590.1C277.6,590.1 286.3,580.8 290,575.4L278.7,567.9C275,573.4 269.8,577 262.4,577ZM261.3,536.7C267.1,536.7 271.9,539.6 273.6,543.7L244,556C243.6,543.2 253.9,536.7 261.3,536.7Z" style="fill:rgb(117,120,122);fill-rule:nonzero;"/>
        </g>
        <g id="XMLID_199_1" serif:id="XMLID_199_">
            <path d="M322.3,588.1L322.3,501.2L348.9,501.2C362.2,501.2 372.9,505.2 380.9,513.3C388.9,521.4 392.9,531.8 392.9,544.7C392.9,557.6 388.9,568 380.9,576.1C372.9,584.2 362.2,588.2 348.9,588.2L322.3,588.1ZM333.5,577.4L348.9,577.4C358.9,577.4 366.9,574.5 372.7,568.8C378.6,563.1 381.5,555 381.5,544.7C381.5,534.4 378.6,526.4 372.7,520.6C366.8,514.8 358.9,511.9 348.9,511.9L333.5,511.9L333.5,577.4ZM429.4,590C420.4,590 413.1,587 407.5,581C401.9,575 399.1,567.5 399.1,558.3C399.1,549.6 401.8,542.2 407.3,536C412.8,529.8 419.7,526.7 428.2,526.7C437,526.7 444.1,529.6 449.4,535.3C454.7,541 457.3,548.7 457.3,558.4L457.2,560.5L410.2,560.5C410.5,566.5 412.5,571.2 416.2,574.7C419.9,578.2 424.2,579.9 429.1,579.9C437.1,579.9 442.5,576.5 445.4,569.7L455.4,573.8C453.5,578.4 450.3,582.3 445.8,585.4C441.4,588.4 435.9,590 429.4,590ZM445.5,551.2C445.3,547.8 443.7,544.6 440.8,541.5C437.9,538.4 433.7,536.9 428,536.9C423.9,536.9 420.3,538.2 417.3,540.8C414.3,543.4 412.2,546.9 411.1,551.2L445.5,551.2ZM492.6,590C483.6,590 476.3,587 470.7,581C465.1,575 462.3,567.5 462.3,558.3C462.3,549.6 465,542.2 470.5,536C476,529.8 482.9,526.7 491.4,526.7C500.2,526.7 507.3,529.6 512.6,535.3C517.9,541 520.5,548.7 520.5,558.4L520.4,560.5L473.4,560.5C473.7,566.5 475.7,571.2 479.4,574.7C483.1,578.2 487.4,579.9 492.3,579.9C500.3,579.9 505.7,576.5 508.6,569.7L518.6,573.8C516.7,578.4 513.5,582.3 509,585.4C504.6,588.4 499.1,590 492.6,590ZM508.7,551.2C508.5,547.8 506.9,544.6 504,541.5C501.1,538.4 496.9,536.9 491.2,536.9C487.1,536.9 483.5,538.2 480.5,540.8C477.5,543.4 475.4,546.9 474.3,551.2L508.7,551.2ZM559.5,590C555,590 550.9,589 547.3,587.1C543.7,585.2 541,582.7 539.2,579.8L538.7,579.8L539.2,588.1L539.2,614.3L528,614.3L528,528.6L538.7,528.6L538.7,536.9L539.2,536.9C541,534 543.7,531.6 547.3,529.6C550.9,527.7 555,526.7 559.5,526.7C567.2,526.7 573.8,529.7 579.4,535.8C585,541.9 587.8,549.4 587.8,558.4C587.8,567.4 585,574.9 579.4,581C573.9,587 567.2,590 559.5,590ZM557.7,579.8C562.9,579.8 567.3,577.8 571,573.9C574.7,570 576.6,564.8 576.6,558.3C576.6,551.8 574.7,546.6 571,542.7C567.3,538.8 562.8,536.8 557.7,536.8C552.4,536.8 548,538.7 544.3,542.6C540.6,546.5 538.8,551.7 538.8,558.3C538.8,564.9 540.6,570.1 544.3,574C548,577.9 552.5,579.8 557.7,579.8ZM598.3,588.1L598.3,501.2L609.5,501.2L639.7,554.1L640.2,554.1L670.4,501.2L681.6,501.2L681.6,588.1L670.4,588.1L670.4,536.5L670.9,521.9L670.4,521.9L643.2,569.6L636.6,569.6L609.4,521.9L608.9,521.9L609.4,536.5L609.4,588.1L598.3,588.1ZM706.9,513.7C705.4,515.2 703.5,516 701.3,516C699.1,516 697.3,515.2 695.7,513.7C694.2,512.2 693.4,510.3 693.4,508.1C693.4,505.9 694.2,504.1 695.7,502.5C697.2,501 699.1,500.2 701.3,500.2C703.5,500.2 705.3,501 706.9,502.5C708.4,504 709.2,505.9 709.2,508.1C709.2,510.3 708.5,512.1 706.9,513.7ZM706.9,588.1L695.7,588.1L695.7,528.6L706.9,528.6L706.9,588.1ZM729.2,528.6L729.2,536.9L729.7,536.9C731.3,534.1 733.9,531.7 737.3,529.7C740.8,527.7 744.5,526.7 748.5,526.7C755.9,526.7 761.5,529 765.4,533.5C769.3,538 771.2,544.1 771.2,551.7L771.2,588.1L760,588.1L760,553.4C760,542.4 755.1,536.9 745.3,536.9C740.7,536.9 736.9,538.7 734,542.4C731.1,546.1 729.6,550.3 729.6,555.2L729.6,588.1L718.4,588.1L718.4,528.6L729.2,528.6ZM807,590C799.3,590 792.7,587 787.1,580.9C781.5,574.8 778.7,567.3 778.7,558.3C778.7,549.3 781.5,541.8 787.1,535.7C792.7,529.6 799.3,526.6 807,526.6C811.5,526.6 815.6,527.6 819.2,529.5C822.8,531.4 825.5,533.9 827.3,536.8L827.8,536.8L827.3,528.5L827.3,501.2L838.5,501.2L838.5,588.1L827.8,588.1L827.8,579.8L827.3,579.8C825.5,582.7 822.8,585.1 819.2,587.1C815.6,589 811.5,590 807,590ZM808.8,579.8C814.1,579.8 818.5,577.9 822.2,574C825.9,570.1 827.7,564.9 827.7,558.3C827.7,551.7 825.9,546.5 822.2,542.6C818.5,538.7 814,536.8 808.8,536.8C803.6,536.8 799.2,538.8 795.5,542.7C791.8,546.6 789.9,551.8 789.9,558.3C789.9,564.8 791.8,570 795.5,573.9C799.2,577.8 803.6,579.8 808.8,579.8Z" style="fill:rgb(117,120,122);fill-rule:nonzero;"/>
        </g>
    </g>
    <defs>
        <linearGradient id="_Linear1" x1="0" y1="0" x2="1" y2="0" gradientUnits="userSpaceOnUse" gradientTransform="matrix(206.757,0,0,206.757,1.001,131.034)"><stop offset="0" style="stop-color:rgb(38,148,210);stop-opacity:1"/><stop offset="0.31" style="stop-color:rgb(27,135,200);stop-opacity:1"/><stop offset="0.73" style="stop-color:rgb(12,123,190);stop-opacity:1"/><stop offset="1" style="stop-color:rgb(3,119,187);stop-opacity:1"/></linearGradient>
        <linearGradient id="_Linear2" x1="0" y1="0" x2="1" y2="0" gradientUnits="userSpaceOnUse" gradientTransform="matrix(206.757,0,0,206.757,42.2417,118.961)"><stop offset="0" style="stop-color:rgb(108,176,225);stop-opacity:1"/><stop offset="1" style="stop-color:rgb(173,214,242);stop-opacity:1"/></linearGradient>
    </defs>
</svg>
