<?xml version="1.0" encoding="utf-8"?>
<!-- Generator: Adobe Illustrator 13.0.2, SVG Export Plug-In . SVG Version: 6.00 Build 14948)  -->
<!DOCTYPE svg PUBLIC "-//W3C//DTD SVG 1.1//EN" "http://www.w3.org/Graphics/SVG/1.1/DTD/svg11.dtd">
<svg version="1.1" id="Layer_1" xmlns="http://www.w3.org/2000/svg" xmlns:xlink="http://www.w3.org/1999/xlink" x="0px" y="0px"
	 width="162.66px" height="56.18px" viewBox="0 0 162.66 56.18" enable-background="new 0 0 162.66 56.18" xml:space="preserve">
<path fill="#FFFFFF" d="M0.42,1.158C0.239,1.258,0.1,1.397,0,1.578c0-0.14,0-0.28,0-0.42C0.14,1.158,0.28,1.158,0.42,1.158z"/>
<path d="M0.42,1.158c18.06,0,36.121,0,54.18,0c0.682,0.287,0.42,2.412,0.42,3.66c0,15.912,0,31.831,0,47.88
	c0,1.306,0.21,3.287-0.36,3.479c-18.1,0-36.201,0-54.3,0c-0.155-0.104-0.279-0.239-0.36-0.42c0-18.059,0-36.119,0-54.18
	C0.1,1.397,0.239,1.258,0.42,1.158z M4.08,2.778c0.274-0.188,0.604-0.316,0.84-0.54c-0.6,0.04-1.359-0.08-1.86,0.06
	C3.407,2.451,3.699,2.659,4.08,2.778z M4.2,4.038c-1.302,1.04-2.109,2.23-2.64,3.72c-1.242,3.479,0.217,6.759,1.98,8.521
	c1.389,1.389,3.285,2.407,5.82,2.398c4.499-0.013,8.312-3.577,8.22-8.34c-0.09-4.646-3.746-8.328-8.64-8.04
	C6.951,2.415,5.38,3.094,4.2,4.038z M15.9,3.738c1.227-0.573,2.57-1.03,3.9-1.5c-2,0.04-4.16-0.08-6.06,0.06
	C14.593,2.607,15.256,3.419,15.9,3.738z M16.62,4.578c1.031,1.509,1.936,3.146,2.04,5.58c1.142,0.478,2.137,1.103,3.24,1.62
	c1.574-3.188,3.2-6.32,4.74-9.54c-0.04,0-0.08,0-0.12,0C22.647,2.445,19.48,3.358,16.62,4.578z M33.12,11.658
	c1.173-0.487,2.245-1.075,3.36-1.62c0.062-2.418,0.986-3.974,1.98-5.46c-2.858-1.242-6.054-2.146-9.96-2.34
	C29.84,5.338,31.613,8.524,33.12,11.658z M39.24,3.738c0.649-0.53,1.321-1.039,2.04-1.5c-1.96,0.04-4.08-0.08-5.94,0.06
	C36.756,2.662,37.957,3.241,39.24,3.738z M40.02,4.578c-1.251,1.206-2.285,2.763-2.46,5.04c-0.243,3.16,0.964,5.304,2.4,6.72
	c1.876,1.853,4.901,2.787,7.74,2.102c2.511-0.608,4.571-2.431,5.58-4.74c1.22-2.795,0.481-6.196-0.899-8.1
	c-1.324-1.825-3.829-3.508-7.08-3.302C42.976,2.445,41.366,3.281,40.02,4.578z M50.94,2.778c0.368-0.152,0.752-0.288,1.02-0.54
	c-0.58,0.04-1.32-0.08-1.8,0.06C50.436,2.443,50.715,2.584,50.94,2.778z M51.96,3.559c0.275,0.184,0.444,0.476,0.72,0.658
	c0.09-0.476,0.682-1.068,0.54-1.38C52.853,3.131,52.294,3.231,51.96,3.559z M2.4,4.158c0.324-0.137,0.497-0.424,0.72-0.66
	c-0.487-0.151-0.833-0.447-1.32-0.6C1.959,3.358,2.207,3.731,2.4,4.158z M23.16,11.658c2.471-0.766,6.382-0.617,8.76-0.06
	c-1.506-2.834-2.873-5.808-4.38-8.642C26.058,5.836,24.615,8.753,23.16,11.658z M1.14,6.078c0.148-0.332,0.33-0.631,0.541-0.9
	c-0.167-0.433-0.367-0.833-0.6-1.198C1.12,4.658,1,5.498,1.14,6.078z M53.4,5.177c0.187,0.274,0.316,0.604,0.54,0.842
	c-0.04-0.62,0.08-1.4-0.06-1.921C53.768,4.506,53.512,4.771,53.4,5.177z M34.2,12.438c1.055,0.403,1.993,0.927,2.88,1.5
	c-0.304-0.816-0.471-1.771-0.66-2.7C35.733,11.691,34.854,11.952,34.2,12.438z M18,13.878c0.917-0.462,1.701-1.06,2.76-1.38
	c-0.607-0.493-1.419-0.78-2.16-1.14C18.537,12.335,18.299,13.137,18,13.878z M23.7,12.677c1.267,0.613,2.48,1.28,3.78,1.86
	c1.193-0.687,2.527-1.232,3.72-1.92C29.104,12.034,25.727,12.03,23.7,12.677z M32.58,13.158c-1.247,0.733-2.687,1.273-3.9,2.04
	c2.272,0.988,4.452,2.389,6.66,3.24C34.36,16.738,33.627,14.792,32.58,13.158z M22.38,13.218c-0.84,1.721-1.741,3.381-2.58,5.102
	c2.14-1.062,4.354-2.047,6.36-3.24C24.86,14.498,23.646,13.831,22.38,13.218z M12.48,22.038c1.86-1,3.807-1.913,5.7-2.88
	c0.913-1.867,1.88-3.68,2.76-5.58C17.062,15.301,14.067,18.225,12.48,22.038z M36.96,19.338c1.907,0.935,3.76,1.92,5.7,2.82
	c-1.748-3.953-4.589-6.811-8.52-8.58c-0.037,0.004-0.071,0.009-0.06,0.062C35.08,15.498,35.993,17.445,36.96,19.338z M1.14,20.898
	c0.394-1.406,0.885-2.716,1.5-3.9c-0.527-0.713-1.09-1.39-1.56-2.16C1.12,16.838,1,18.998,1.14,20.898z M52.44,16.998
	c0.583,1.217,1.048,2.552,1.5,3.9c-0.04-2,0.08-4.16-0.06-6.062C53.572,15.729,52.875,16.232,52.44,16.998z M36.18,20.118
	c-2.954-1.386-5.772-2.907-8.7-4.32c-2.765,1.195-5.657,2.783-8.46,4.142c-1.484,2.875-2.936,5.783-4.38,8.7
	c1.413,2.865,2.88,5.68,4.26,8.579c2.94,1.399,5.793,2.887,8.7,4.319c2.78-1.46,5.646-2.833,8.46-4.26
	c1.433-2.907,2.921-5.759,4.32-8.7C38.987,25.752,37.54,22.979,36.18,20.118z M3.48,17.719c-1.32,2.801-2.179,6.062-2.4,9.959
	c3.207-1.513,6.273-3.165,9.48-4.68c-0.44-1.16-1.053-2.146-1.56-3.239C6.618,19.62,4.955,18.764,3.48,17.719z M51.54,17.719
	c-1.417,1.083-3.116,1.884-5.46,2.04c-0.593,1.086-1.153,2.206-1.68,3.359c3.22,1.54,6.354,3.167,9.54,4.74
	C53.771,23.848,52.903,20.535,51.54,17.719z M10.2,19.698c0.359,0.74,0.647,1.553,1.14,2.16c0.325-1.017,1.035-1.966,1.38-2.76
	C11.997,19.415,11.147,19.605,10.2,19.698z M43.8,21.918c0.32-0.778,0.727-1.473,1.08-2.22c-1.018-0.002-1.911-0.448-2.64-0.54
	C42.898,19.94,43.263,21.016,43.8,21.918z M12.06,23.418c0.626,1.354,1.287,2.674,1.98,3.96c1.027-2.213,2.381-4.419,3.24-6.6
	C15.58,21.698,13.793,22.531,12.06,23.418z M41.04,27.378c0.64-1.278,1.28-2.56,1.92-3.84c-1.781-0.719-3.414-1.905-5.16-2.46
	C38.934,23.125,39.874,25.365,41.04,27.378z M1.8,28.578c2.86,1.46,5.718,2.923,8.64,4.32c-0.704-2.524-0.531-6.33,0-8.7
	C7.607,25.705,4.633,27.071,1.8,28.578z M44.52,33.019c2.914-1.407,5.793-2.848,8.64-4.32c-2.84-1.46-5.713-2.887-8.58-4.32
	C45.214,26.849,45.26,30.628,44.52,33.019z M11.52,32.418c0.279-0.622,0.624-1.19,0.96-1.858c0.268-0.532,0.912-1.438,0.9-1.98
	c-0.009-0.434-0.587-1.179-0.9-1.8c-0.409-0.813-0.681-1.589-1.02-1.98C10.94,26.965,10.813,30.354,11.52,32.418z M41.64,28.698
	c0.647,1.254,1.24,2.56,1.92,3.78c0.564-2.259,0.642-5.512-0.06-7.682C42.934,26.151,42.173,27.312,41.64,28.698z M3.42,39.559
	c1.509-0.973,3.02-1.939,5.46-1.98c0.6-1.101,1.159-2.24,1.74-3.359C7.433,32.646,4.3,31.02,1.08,29.48
	C1.251,33.446,2.172,36.667,3.42,39.559z M44.46,34.278c0.54,1.101,1.007,2.272,1.68,3.24c2.054,0.12,3.729,0.89,4.98,1.739
	c0.139,0.095,0.295,0.338,0.48,0.239c1.307-2.772,2.145-6.015,2.34-9.899c-0.04,0-0.08,0-0.12,0
	C50.7,31.158,47.58,32.718,44.46,34.278z M12.06,33.738c1.733,0.807,3.52,1.88,5.22,2.52c-1.154-2.086-2.114-4.365-3.3-6.42
	C13.38,31.179,12.693,32.432,12.06,33.738z M37.68,36.438c1.807-0.813,3.473-1.768,5.28-2.58c-0.586-1.413-1.293-2.707-1.98-4.021
	C39.928,32.086,38.753,34.211,37.68,36.438z M21,43.758c-1.02-1.898-1.953-3.886-2.94-5.818c-1.969-0.871-3.737-1.943-5.7-2.82
	C14.086,39.112,17.097,42.142,21,43.758z M36.9,38.059c-0.993,1.887-1.954,3.806-2.88,5.76c3.959-1.74,6.796-4.604,8.58-8.521
	c-0.013-0.046-0.05-0.068-0.12-0.06C40.66,36.219,38.753,37.111,36.9,38.059z M10.14,37.578c0.999,0.062,1.814,0.307,2.58,0.6
	c-0.545-0.895-1.01-1.869-1.5-2.818C10.9,36.139,10.493,36.832,10.14,37.578z M42.36,38.177c0.702-0.356,1.658-0.462,2.52-0.658
	c-0.427-0.673-0.713-1.487-1.14-2.16C43.403,36.381,42.705,37.362,42.36,38.177z M1.14,42.438c0.327-0.836,1.126-1.513,1.44-2.16
	c-0.571-1.209-1.017-2.543-1.5-3.84C1.12,38.418,1,40.559,1.14,42.438z M52.44,40.398c0.579,0.601,1.049,1.312,1.5,2.04
	c-0.04-1.98,0.08-4.12-0.06-6C53.541,37.898,52.936,39.094,52.44,40.398z M3.36,41.177c-1.137,1.219-2.287,3.191-2.28,5.7
	c0.014,4.746,3.736,8.238,8.28,8.222c4.542-0.019,8.201-3.573,8.16-8.342c-0.02-2.335-1.163-4.54-2.46-5.818
	c-1.376-1.358-3.623-2.429-6.12-2.28C6.334,38.812,4.572,39.88,3.36,41.177z M40.02,40.878c-1.205,1.173-2.243,2.769-2.46,4.98
	c-0.324,3.301,1.061,5.578,2.4,6.898c1.893,1.868,4.792,2.813,7.74,2.102c2.51-0.607,4.614-2.441,5.58-4.74
	c1.23-2.927,0.348-6.385-0.899-8.1c-1.375-1.891-3.819-3.567-7.08-3.36C43.029,38.802,41.239,39.691,40.02,40.878z M22.44,44.118
	c1.247-0.733,2.687-1.273,3.9-2.04c-2.234-0.986-4.434-2.326-6.6-3.18C20.693,40.585,21.454,42.465,22.44,44.118z M28.8,42.139
	c1.28,0.64,2.56,1.278,3.84,1.92c0.847-1.675,1.874-3.486,2.52-5.16C33.087,40.025,30.873,41.012,28.8,42.139z M23.7,44.719
	c2.271,0.577,5.55,0.639,7.74-0.061c-1.363-0.577-2.531-1.349-3.9-1.92C26.273,43.412,24.9,43.979,23.7,44.719z M18.6,46.038
	c0.673-0.427,1.487-0.713,2.16-1.14c-1-0.44-1.948-0.933-2.82-1.5C18.27,44.168,18.408,45.131,18.6,46.038z M34.32,44.958
	c0.767,0.293,1.393,0.729,2.16,1.021c0.088-0.912,0.32-1.682,0.54-2.46c0.063-0.003,0.047-0.077-0.06-0.062
	C36.201,44.079,35.163,44.421,34.32,44.958z M33.18,45.559c-1.72,3.079-3.234,6.365-4.86,9.54c4.027-0.134,7.242-1.079,10.14-2.342
	c-0.981-1.519-1.936-3.062-1.98-5.52C35.419,46.639,34.274,46.124,33.18,45.559z M21.9,45.618c-0.04,0-0.08,0-0.12,0
	c-1.04,0.58-2.24,1-3.18,1.68c-0.104,2.336-1.139,4.062-1.98,5.46c2.844,1.218,6.172,2.269,10.02,2.28
	C25.02,51.938,23.486,48.752,21.9,45.618z M27.54,54.318c1.38-2.9,2.847-5.713,4.26-8.58c-2.465,0.646-6.25,0.669-8.64-0.061
	C24.6,48.578,25.967,51.552,27.54,54.318z M1.14,53.059c0.167-0.293,0.28-0.642,0.48-0.9c-0.149-0.331-0.35-0.61-0.54-0.899
	C1.12,51.839,1,52.578,1.14,53.059z M53.4,52.218c0.187,0.333,0.319,0.723,0.54,1.021c-0.04-0.641,0.08-1.439-0.06-1.979
	C53.794,51.653,53.497,51.835,53.4,52.218z M1.68,54.438c0.487-0.213,0.992-0.407,1.38-0.721c-0.276-0.185-0.444-0.476-0.72-0.659
	C2.127,53.525,1.86,53.938,1.68,54.438z M51.96,53.778c0.44,0.22,0.88,0.439,1.32,0.66c-0.219-0.461-0.367-0.993-0.719-1.32
	C52.45,53.429,52.167,53.565,51.96,53.778z M15.84,53.599c-0.598,0.361-1.361,1.078-2.1,1.5c2-0.04,4.16,0.08,6.06-0.062
	C18.335,54.703,17.127,54.111,15.84,53.599z M39.24,53.599c-1.244,0.556-2.57,1.029-3.9,1.5c1.98-0.04,4.12,0.08,6-0.062
	C40.48,54.718,39.945,54.073,39.24,53.599z M51,54.498c-0.228,0.272-0.625,0.376-0.9,0.602c0.66-0.04,1.479,0.078,2.04-0.062
	C51.72,54.898,51.387,54.671,51,54.498z M2.88,55.099c0.66-0.04,1.48,0.078,2.04-0.062C4.276,54.484,3.505,54.542,2.88,55.099z"/>
<path fill="#FFFFFF" d="M3.06,2.298c0.5-0.14,1.26-0.02,1.86-0.06c-0.236,0.224-0.566,0.354-0.84,0.54
	C3.699,2.659,3.407,2.451,3.06,2.298z"/>
<path fill="#FFFFFF" d="M13.74,2.298c1.9-0.14,4.06-0.02,6.06-0.06c-1.33,0.47-2.673,0.927-3.9,1.5
	C15.256,3.419,14.593,2.607,13.74,2.298z"/>
<path fill="#FFFFFF" d="M26.52,2.238c0.04,0,0.08,0,0.12,0c-1.54,3.22-3.167,6.354-4.74,9.54c-1.103-0.519-2.098-1.144-3.24-1.62
	c-0.104-2.436-1.009-4.071-2.04-5.58C19.48,3.358,22.647,2.445,26.52,2.238z"/>
<path fill="#FFFFFF" d="M28.5,2.238c3.906,0.194,7.102,1.098,9.96,2.34c-0.994,1.486-1.918,3.042-1.98,5.46
	c-1.115,0.545-2.187,1.133-3.36,1.62C31.613,8.524,29.84,5.338,28.5,2.238z"/>
<path fill="#FFFFFF" d="M35.34,2.298c1.86-0.14,3.98-0.02,5.94-0.06c-0.719,0.461-1.391,0.97-2.04,1.5
	C37.957,3.241,36.756,2.662,35.34,2.298z"/>
<path fill="#FFFFFF" d="M45.3,2.298c3.251-0.206,5.756,1.477,7.08,3.302c1.381,1.902,2.12,5.305,0.899,8.1
	c-1.008,2.311-3.068,4.132-5.58,4.74c-2.839,0.687-5.864-0.249-7.74-2.102c-1.436-1.416-2.643-3.56-2.4-6.72
	c0.175-2.277,1.208-3.834,2.46-5.04C41.366,3.281,42.976,2.445,45.3,2.298z M43.44,5.958c-0.046,0.015-0.069,0.051-0.06,0.12
	c0,0.04,0,0.08,0,0.12c0.275,0.264,0.958,0.122,1.08,0.54c0.105,0.953,0.06,2.28,0.06,3.78c0,0.835,0.251,3.229-0.12,3.72
	c-0.281,0.371-0.86,0.062-1.02,0.479c0.925,0.217,2.468,0.119,3.54,0.119c0.367,0,0.903,0.152,1.08-0.18
	c-0.355-0.208-1.062-0.231-1.26-0.78c-0.276-0.769-0.06-2.339-0.06-3.6c0-1.726-0.289-3.521,0.66-3.9c0.201-0.08,0.708,0.1,0.66-0.3
	C46.672,5.801,44.876,6.037,43.44,5.958z"/>
<path fill="#FFFFFF" d="M50.16,2.298c0.48-0.14,1.22-0.02,1.8-0.06c-0.268,0.252-0.652,0.388-1.02,0.54
	C50.715,2.584,50.436,2.443,50.16,2.298z"/>
<path fill="#FFFFFF" d="M53.22,2.838c0.142,0.312-0.45,0.904-0.54,1.38c-0.276-0.184-0.445-0.476-0.72-0.658
	C52.294,3.231,52.853,3.131,53.22,2.838z"/>
<path fill="#FFFFFF" d="M1.8,2.898c0.487,0.151,0.833,0.446,1.32,0.6C2.896,3.734,2.724,4.021,2.4,4.158
	C2.207,3.731,1.959,3.358,1.8,2.898z"/>
<path fill="#FFFFFF" d="M27.54,2.958c1.507,2.834,2.874,5.808,4.38,8.642c-2.377-0.559-6.289-0.706-8.76,0.06
	C24.615,8.753,26.058,5.836,27.54,2.958z"/>
<path fill="#FFFFFF" d="M1.08,3.979c0.233,0.365,0.433,0.767,0.6,1.198c-0.21,0.271-0.392,0.568-0.541,0.9
	C1,5.498,1.12,4.658,1.08,3.979z"/>
<path fill="#FFFFFF" d="M53.88,4.098c0.139,0.521,0.02,1.301,0.06,1.921c-0.224-0.236-0.354-0.566-0.54-0.842
	C53.512,4.771,53.768,4.506,53.88,4.098z"/>
<path fill="#FFFFFF" d="M36.42,11.238c0.189,0.931,0.356,1.884,0.66,2.7c-0.887-0.573-1.825-1.097-2.88-1.5
	C34.854,11.952,35.733,11.691,36.42,11.238z"/>
<path fill="#FFFFFF" d="M18.6,11.358c0.74,0.358,1.553,0.646,2.16,1.14c-1.059,0.32-1.843,0.918-2.76,1.38
	C18.299,13.137,18.537,12.335,18.6,11.358z"/>
<path fill="#FFFFFF" d="M31.2,12.618c-1.193,0.688-2.527,1.233-3.72,1.92c-1.3-0.58-2.513-1.247-3.78-1.86
	C25.727,12.03,29.104,12.034,31.2,12.618z"/>
<path fill="#FFFFFF" d="M35.34,18.438c-2.208-0.853-4.388-2.252-6.66-3.24c1.213-0.767,2.653-1.307,3.9-2.04
	C33.627,14.792,34.36,16.738,35.34,18.438z"/>
<path fill="#FFFFFF" d="M26.16,15.078c-2.007,1.193-4.22,2.18-6.36,3.24c0.839-1.721,1.74-3.381,2.58-5.102
	C23.646,13.831,24.86,14.498,26.16,15.078z"/>
<path fill="#FFFFFF" d="M34.08,13.639c-0.011-0.053,0.023-0.058,0.06-0.062c3.931,1.771,6.772,4.627,8.52,8.58
	c-1.94-0.9-3.793-1.887-5.7-2.82C35.993,17.445,35.08,15.498,34.08,13.639z"/>
<path fill="#FFFFFF" d="M1.08,14.838c0.47,0.771,1.033,1.447,1.56,2.16c-0.615,1.186-1.106,2.494-1.5,3.9
	C1,18.998,1.12,16.838,1.08,14.838z"/>
<path fill="#FFFFFF" d="M53.88,14.838c0.14,1.9,0.02,4.062,0.06,6.062c-0.451-1.35-0.917-2.685-1.5-3.9
	C52.875,16.232,53.572,15.729,53.88,14.838z"/>
<path fill="#FFFFFF" d="M40.38,28.578c-1.399,2.941-2.887,5.793-4.32,8.7c-2.813,1.427-5.68,2.8-8.46,4.26
	c-2.907-1.434-5.76-2.92-8.7-4.319c-1.38-2.899-2.847-5.714-4.26-8.579c1.444-2.917,2.896-5.825,4.38-8.7
	c2.803-1.357,5.695-2.945,8.46-4.142c2.928,1.413,5.747,2.936,8.7,4.32C37.54,22.979,38.987,25.752,40.38,28.578z"/>
<path fill="#FFFFFF" d="M9,19.759c0.507,1.094,1.12,2.079,1.56,3.239c-3.207,1.515-6.273,3.167-9.48,4.68
	c0.221-3.897,1.08-7.158,2.4-9.959C4.955,18.764,6.618,19.62,9,19.759z"/>
<path fill="#FFFFFF" d="M53.94,27.858c-3.187-1.573-6.32-3.2-9.54-4.74c0.527-1.153,1.087-2.273,1.68-3.359
	c2.344-0.156,4.043-0.957,5.46-2.04C52.903,20.535,53.771,23.848,53.94,27.858z"/>
<path fill="#FFFFFF" d="M12.72,19.099c-0.346,0.794-1.055,1.743-1.38,2.76c-0.493-0.607-0.78-1.42-1.14-2.16
	C11.147,19.605,11.997,19.415,12.72,19.099z"/>
<path fill="#FFFFFF" d="M42.24,19.158c0.729,0.092,1.622,0.538,2.64,0.54c-0.353,0.747-0.76,1.44-1.08,2.22
	C43.263,21.016,42.898,19.94,42.24,19.158z"/>
<path fill="#FFFFFF" d="M17.28,20.778c-0.859,2.181-2.213,4.387-3.24,6.6c-0.693-1.286-1.354-2.605-1.98-3.96
	C13.793,22.531,15.58,21.698,17.28,20.778z"/>
<path fill="#FFFFFF" d="M37.8,21.078c1.746,0.555,3.379,1.741,5.16,2.46c-0.64,1.28-1.28,2.562-1.92,3.84
	C39.874,25.365,38.934,23.125,37.8,21.078z"/>
<path fill="#FFFFFF" d="M10.44,24.198c-0.531,2.37-0.704,6.176,0,8.7c-2.922-1.397-5.78-2.86-8.64-4.32
	C4.633,27.071,7.607,25.705,10.44,24.198z"/>
<path fill="#FFFFFF" d="M44.58,24.378c2.867,1.435,5.74,2.86,8.58,4.32c-2.847,1.474-5.727,2.913-8.64,4.32
	C45.26,30.628,45.214,26.849,44.58,24.378z"/>
<path fill="#FFFFFF" d="M11.46,24.798c0.339,0.393,0.611,1.167,1.02,1.98c0.312,0.621,0.891,1.366,0.9,1.8
	c0.012,0.544-0.632,1.448-0.9,1.98c-0.336,0.668-0.681,1.236-0.96,1.858C10.813,30.354,10.94,26.965,11.46,24.798z"/>
<path fill="#FFFFFF" d="M43.5,24.798c0.702,2.17,0.624,5.424,0.06,7.682c-0.68-1.222-1.273-2.526-1.92-3.78
	C42.173,27.312,42.934,26.151,43.5,24.798z"/>
<path fill="#FFFFFF" d="M1.08,29.479c3.22,1.54,6.353,3.166,9.54,4.739c-0.581,1.119-1.141,2.26-1.74,3.359
	c-2.44,0.041-3.951,1.009-5.46,1.98C2.172,36.667,1.251,33.446,1.08,29.479z"/>
<path fill="#FFFFFF" d="M53.82,29.598c0.04,0,0.08,0,0.12,0c-0.195,3.886-1.033,7.127-2.34,9.899
	c-0.185,0.099-0.341-0.146-0.48-0.239c-1.251-0.851-2.926-1.619-4.98-1.739c-0.673-0.968-1.14-2.141-1.68-3.24
	C47.58,32.718,50.7,31.158,53.82,29.598z"/>
<path fill="#FFFFFF" d="M13.98,29.838c1.187,2.055,2.146,4.334,3.3,6.42c-1.7-0.64-3.487-1.713-5.22-2.52
	C12.693,32.432,13.38,31.179,13.98,29.838z"/>
<path fill="#FFFFFF" d="M40.98,29.838c0.687,1.313,1.394,2.607,1.98,4.021c-1.807,0.812-3.473,1.767-5.28,2.58
	C38.753,34.211,39.928,32.086,40.98,29.838z"/>
<path fill="#FFFFFF" d="M42.48,35.238c0.07-0.01,0.107,0.014,0.12,0.06c-1.784,3.917-4.621,6.78-8.58,8.521
	c0.926-1.954,1.887-3.873,2.88-5.76C38.753,37.111,40.66,36.219,42.48,35.238z"/>
<path fill="#FFFFFF" d="M11.22,35.358c0.49,0.949,0.955,1.925,1.5,2.818c-0.766-0.293-1.582-0.537-2.58-0.6
	C10.493,36.832,10.9,36.139,11.22,35.358z"/>
<path fill="#FFFFFF" d="M1.08,36.438c0.483,1.297,0.929,2.631,1.5,3.84c-0.314,0.647-1.114,1.324-1.44,2.16
	C1,40.559,1.12,38.418,1.08,36.438z"/>
<path fill="#FFFFFF" d="M53.88,36.438c0.14,1.88,0.02,4.02,0.06,6c-0.451-0.729-0.921-1.439-1.5-2.04
	C52.936,39.094,53.541,37.898,53.88,36.438z"/>
<path fill="#FFFFFF" d="M8.94,38.658c2.497-0.147,4.744,0.922,6.12,2.28c1.297,1.278,2.44,3.483,2.46,5.818
	c0.041,4.769-3.619,8.323-8.16,8.342c-4.544,0.018-8.266-3.476-8.28-8.222c-0.007-2.509,1.143-4.481,2.28-5.7
	C4.572,39.88,6.334,38.812,8.94,38.658z M12.12,46.698c0.839-0.511,1.46-1.969,0.84-3.18c-0.95-1.857-4.665-0.99-7.38-1.2
	c-0.047,0.013-0.07,0.05-0.06,0.12c0,0.04,0,0.08,0,0.12c0.181,0.272,0.713,0.061,0.96,0.42c0.431,0.627,0.12,2.629,0.12,3.84
	c0,1.504,0.107,2.953-0.18,3.78c-0.188,0.271-0.868,0.052-0.9,0.479c0.861,0.217,2.353,0.12,3.36,0.12c0.341,0,0.876,0.15,1.02-0.18
	c-0.369-0.289-0.694-0.124-0.96-0.48c-0.504-0.674-0.044-2.376-0.12-3.3C10.059,47.181,11.21,47.252,12.12,46.698z"/>
<path fill="#FFFFFF" d="M45.3,38.658c3.261-0.207,5.706,1.471,7.08,3.36c1.247,1.715,2.129,5.173,0.899,8.1
	c-0.965,2.299-3.07,4.133-5.58,4.74c-2.949,0.713-5.848-0.232-7.74-2.102c-1.339-1.32-2.724-3.599-2.4-6.898
	c0.217-2.213,1.255-3.809,2.46-4.98C41.239,39.691,43.029,38.802,45.3,38.658z M47.64,42.559c-0.245,0.044-0.745-0.223-1.08-0.301
	c-0.423-0.1-0.859-0.154-1.2-0.181c-2.085-0.156-3.359,2.378-2.4,3.96c0.907,1.496,3.175,1.614,4.02,2.7
	c0.114,0.146,0.279,0.442,0.3,0.66c0.184,1.909-2.453,1.808-3.36,0.898c-0.327-0.325-0.465-0.758-0.6-1.08
	c-0.164-0.391-0.156-1.003-0.66-1.078c-0.2,0.821-0.2,2.477,0,3.3c0.523-0.031,0.265-0.397,0.66-0.48
	c0.238-0.05,0.646,0.234,0.899,0.301c2.347,0.611,5.116-0.474,4.62-3.181c-0.118-0.643-0.65-1.229-1.08-1.56
	c-0.904-0.694-3.25-1.098-3.6-2.28c-0.386-1.304,1.128-2.173,2.4-1.5c0.457,0.242,0.916,0.854,1.14,1.26
	c0.219,0.396,0.081,0.733,0.6,0.96c0.199-0.683,0.2-2.196,0-2.88C47.833,42.172,48.058,42.482,47.64,42.559z"/>
<path fill="#FFFFFF" d="M19.74,38.898c2.167,0.854,4.366,2.192,6.6,3.18c-1.213,0.767-2.654,1.307-3.9,2.04
	C21.454,42.465,20.693,40.585,19.74,38.898z"/>
<path fill="#FFFFFF" d="M35.16,38.898c-0.646,1.674-1.673,3.485-2.52,5.16c-1.28-0.642-2.56-1.28-3.84-1.92
	C30.873,41.012,33.087,40.025,35.16,38.898z"/>
<path fill="#FFFFFF" d="M8.76,46.758c0.038-1.262-0.077-2.676,0.06-3.84c0.594-0.233,1.287-0.196,1.68,0.182
	c0.592,0.566,0.727,2.95-0.3,3.479C9.768,46.801,9.336,46.686,8.76,46.758z"/>
<path fill="#FFFFFF" d="M27.54,42.738c1.369,0.571,2.537,1.343,3.9,1.92c-2.19,0.698-5.469,0.638-7.74,0.061
	C24.9,43.979,26.273,43.412,27.54,42.738z"/>
<path fill="#FFFFFF" d="M17.94,43.398c0.872,0.567,1.82,1.06,2.82,1.5c-0.673,0.427-1.487,0.713-2.16,1.14
	C18.408,45.131,18.27,44.168,17.94,43.398z"/>
<path fill="#FFFFFF" d="M36.96,43.458c0.107-0.017,0.123,0.059,0.06,0.062c-0.22,0.778-0.452,1.548-0.54,2.46
	c-0.767-0.293-1.393-0.729-2.16-1.021C35.163,44.421,36.201,44.079,36.96,43.458z"/>
<path fill="#FFFFFF" d="M36.48,47.238c0.044,2.456,0.999,4.001,1.98,5.52c-2.898,1.263-6.112,2.208-10.14,2.342
	c1.626-3.175,3.14-6.461,4.86-9.54C34.274,46.124,35.419,46.639,36.48,47.238z"/>
<path fill="#FFFFFF" d="M26.64,55.038c-3.848-0.013-7.176-1.062-10.02-2.28c0.841-1.398,1.875-3.124,1.98-5.46
	c0.94-0.68,2.14-1.1,3.18-1.68c0.04,0,0.08,0,0.12,0C23.486,48.752,25.02,51.938,26.64,55.038z"/>
<path fill="#FFFFFF" d="M23.16,45.679c2.389,0.729,6.175,0.704,8.64,0.06c-1.413,2.867-2.88,5.68-4.26,8.58
	C25.967,51.552,24.6,48.578,23.16,45.679z"/>
<path fill="#FFFFFF" d="M1.08,51.259c0.19,0.289,0.391,0.568,0.54,0.899c-0.201,0.26-0.313,0.607-0.48,0.9
	C1,52.578,1.12,51.839,1.08,51.259z"/>
<path fill="#FFFFFF" d="M53.88,51.259c0.139,0.54,0.02,1.34,0.06,1.979c-0.221-0.299-0.353-0.688-0.54-1.021
	C53.497,51.835,53.794,51.653,53.88,51.259z"/>
<path fill="#FFFFFF" d="M2.34,53.059c0.276,0.185,0.444,0.476,0.72,0.659c-0.388,0.312-0.893,0.508-1.38,0.721
	C1.86,53.938,2.127,53.525,2.34,53.059z"/>
<path fill="#FFFFFF" d="M52.561,53.118c0.352,0.327,0.5,0.859,0.719,1.32c-0.44-0.221-0.879-0.44-1.32-0.66
	C52.167,53.565,52.45,53.429,52.561,53.118z"/>
<path fill="#FFFFFF" d="M19.8,55.038c-1.9,0.142-4.06,0.021-6.06,0.062c0.739-0.422,1.502-1.139,2.1-1.5
	C17.127,54.111,18.335,54.703,19.8,55.038z"/>
<path fill="#FFFFFF" d="M41.34,55.038c-1.88,0.142-4.02,0.021-6,0.062c1.33-0.471,2.656-0.944,3.9-1.5
	C39.945,54.073,40.48,54.718,41.34,55.038z"/>
<path fill="#FFFFFF" d="M52.14,55.038c-0.561,0.14-1.38,0.021-2.04,0.062c0.275-0.226,0.672-0.328,0.9-0.602
	C51.387,54.671,51.72,54.898,52.14,55.038z"/>
<path fill="#FFFFFF" d="M4.92,55.038c-0.56,0.14-1.38,0.021-2.04,0.062C3.505,54.542,4.276,54.484,4.92,55.038z"/>
<path fill="#FFFFFF" d="M0,55.758c0.081,0.181,0.205,0.315,0.36,0.422c-0.12,0-0.24,0-0.36,0C0,56.038,0,55.898,0,55.758z"/>
<path fill="#FFFFFF" d="M20.94,13.578c-0.88,1.9-1.847,3.713-2.76,5.58c-1.894,0.967-3.84,1.88-5.7,2.88
	C14.067,18.225,17.062,15.301,20.94,13.578z"/>
<path fill="#FFFFFF" d="M12.36,35.118c1.963,0.877,3.731,1.949,5.7,2.82c0.987,1.934,1.92,3.92,2.94,5.818
	C17.097,42.142,14.086,39.112,12.36,35.118z"/>
<path fill="#FFFFFF" d="M43.74,35.358c0.427,0.673,0.713,1.486,1.14,2.16c-0.862,0.196-1.818,0.302-2.52,0.658
	C42.705,37.362,43.403,36.381,43.74,35.358z"/>
<text transform="matrix(1 0 0 1 55.8403 7.7292)" font-family="'TimesNewRomanPSMT'" font-size="10">™</text>
<text transform="matrix(1 0 0 1 4.2256 14.8245)" font-family="'Times-Bold'" font-size="13.2031">N</text>
<text transform="matrix(1 0 0 1 43.1338 14.8245)" font-family="'Times-Bold'" font-size="13.2033">I</text>
<text transform="matrix(1 0 0 1 42.106 51.1423)" font-family="'Times-Bold'" font-size="13.2031">S</text>
<text transform="matrix(1 0 0 1 5.2979 51.2205)" font-family="'Times-Bold'" font-size="13.2031">P</text>
</svg>
